<svg xmlns="http://www.w3.org/2000/svg" xmlns:xlink="http://www.w3.org/1999/xlink" xmlns:xodm="http://www.corel.com/coreldraw/odm/2003" xml:space="preserve" width="126.535mm" height="39.6616mm" version="1.1" style="shape-rendering:geometricPrecision; text-rendering:geometricPrecision; image-rendering:optimizeQuality; fill-rule:evenodd; clip-rule:evenodd" viewBox="0 0 11723.55 3674.67">
 <defs>
  <style type="text/css">
   <![CDATA[
    .fil0 {fill:#E2CDAF}
   ]]>
  </style>
 </defs>
 <g id="Слой_x0020_1">
  <metadata id="CorelCorpID_0Corel-Layer"/>
  <g id="_2488930778256">
   <path class="fil0" d="M1803.05 2886.48l1.87 -4.93 4.93 12.97 5.58 14.81c35.19,92.66 62.37,161.84 138.36,236.59 19.13,19.13 39.53,35.82 61.77,51.26 18.52,12.97 38.29,24.7 58.68,35.21 -11.74,-40.78 -25.31,-80.93 -41.4,-120.46 -16.66,-43.22 -36.43,-85.23 -58.06,-126.6 -24.08,-45.12 -50.63,-88.95 -79.68,-131.59 -27.79,-40.15 -58.06,-79.05 -90.17,-116.74l-1.87 -1.84 -2.46 1.84c-32.11,37.69 -62.39,76.59 -90.19,116.74 -29.03,42.64 -55.59,86.47 -79.66,131.59 -21.63,41.37 -41.41,83.38 -58.09,126.6 -16.06,39.53 -29.63,79.69 -41.38,120.46 20.39,-10.51 40.15,-22.24 58.68,-35.21 22.23,-15.44 42.62,-32.13 61.77,-51.26 76.59,-74.75 103.15,-143.93 138.36,-236.59l5.58 -14.81 4.93 -12.97 2.46 4.93zm0 653.52l-2.46 -2.46c-14.19,-25.34 -30.28,-49.42 -47.55,-72.29 -19.15,-25.32 -40.15,-49.42 -63.02,-72.25 -20.99,-21.02 -43.22,-40.15 -66.71,-58.06 -21,-16.06 -42.62,-30.9 -65.47,-44.48 24.1,-11.75 47.55,-25.95 69.18,-40.78 24.7,-17.29 48.18,-37.06 69.78,-58.06 22.24,-21.62 42.62,-45.08 60.56,-70.4 16.06,-22.25 30.86,-45.72 43.22,-70.43l2.46 -3.09 1.87 3.09c12.34,24.71 27.17,48.18 43.22,70.43 17.92,25.31 38.32,48.78 60.56,70.4 21.6,21 45.08,40.78 69.78,58.06 21.63,14.82 45.08,29.03 69.18,40.78 -22.85,13.58 -44.47,28.43 -65.47,44.48 -23.49,17.91 -45.72,37.04 -66.71,58.06 -22.87,22.83 -43.87,46.93 -63.02,72.25 -17.27,22.87 -33.36,46.95 -47.55,72.29l-1.87 2.46zm846.25 -447.22l-285.38 16.06 -77.2 68.57c-0.64,1.23 -1.85,1.86 -2.48,3.09l-48.17 42c-12.97,11.73 -33.36,10.52 -45.08,-2.46 -12.38,-13.59 -10.52,-33.97 2.46,-45.7l3.08 -2.47 -0.61 -0.62 141.44 -126.63 130.95 -6.8c69.8,18.52 130.34,39.54 180.99,54.98zm-1219.94 103.78l0 0.62c-11.75,12.97 -32.11,14.2 -45.72,2.46l-47.55 -42.01 -0.62 -1.23 -56.84 -50.03 -337.24 -17.3c45.7,-17.29 103.75,-38.29 175.41,-56.2l188.4 9.88 88.95 79.68 32.75 29.03c12.97,11.76 14.18,32.13 2.46,45.1zm592.99 -1477.53l0 -0.6c-17.31,-2.48 -29.04,-19.15 -26.57,-37.07l11.12 -66.71c-34.6,-17.92 -68.56,-38.29 -80.93,-87.71l-14.19 0c-17.3,0.62 -32.11,-13.58 -32.11,-31.49 0,-17.94 14.19,-32.74 32.11,-32.74l10.51 0c19.14,-69.18 49.4,-71.65 106.86,-98.85 3.09,-77.2 9.27,-281.04 -9.27,-347.75 -38.31,-8.04 -283.52,-6.79 -329.22,-1.86 -12.36,30.28 -16.07,41.39 -40.78,63.64 -24.71,24.08 -38.9,27.17 -67.33,36.42 -4.32,121.7 0.61,220.52 7.41,337.89 0.63,1.84 0.63,3.08 0.63,4.93l0.61 4.96 9.27 0c17.9,0 32.74,14.19 32.74,32.11 0,17.91 -14.22,32.11 -32.13,32.74l-5.54 0c-1.87,14.81 -14.22,27.17 -30.28,27.79 -16.06,1.25 -30.9,-10.51 -33.98,-26.56l-407.05 1.86c19.14,46.33 42.01,89.56 71.04,130.34 25.32,34.58 -22.87,65.46 -48.8,29.04 -135.89,-195.82 -180.36,-435.49 -116.12,-666.51 1.83,-6.18 3.7,-12.36 5.55,-18.52 4.94,-14.2 9.89,-29.03 14.83,-43.24 29.03,-80.31 46.94,-105.62 75.96,-163.69 30.9,-38.92 69.19,-3.72 54.35,30.9 -4.93,4.93 -50.01,106.22 -56.81,120.43l305.14 1.24c6.79,-15.44 14.82,-43.24 42,-66.71 29.04,-25.33 46.94,-28.43 78.45,-35.83 8.64,-21 16.06,-67.93 22.84,-93.28 14.22,-55.58 35.23,-118.58 59.93,-168.63 12.97,-27.17 32.74,-52.49 42,-74.12 -88.95,1.25 -206.29,64.25 -281.66,112.44 -55.59,35.19 -92.65,-19.15 -30.28,-58.69 161.24,-102.55 357.04,-148.86 546.68,-124.16 112.4,14.83 213.72,51.89 297.09,99.45 18.54,10.51 45.72,32.74 60.55,38.93 17.29,8.01 40.77,-14.22 68.57,-17.92 60.52,-7.43 109.32,25.93 130.92,64.23 42.64,74.75 -2.46,125.39 -2.46,146.4l49.43 85.26c40.15,90.17 84,189.62 88.95,319.33 6.8,174.2 -46.33,385.45 -145.78,503.44 -38.31,45.69 -67.97,-2.49 -49.42,-27.19 24.08,-32.73 53.73,-67.32 74.73,-124.15l-303.29 0c-0.6,0 -24.7,80.31 -106.85,91.42l-12.36 72.27c-2.46,17.29 -19.14,29.04 -37.04,26.55zm-497.88 -253.86c0.62,0 1.23,-0.61 1.86,-0.61l0 -3.1c0,-1.23 0,-3.08 0,-4.33 -7.42,-122.3 -10.51,-225.45 -6.18,-350.21 -48.18,-13.59 -74.11,-48.8 -90.8,-93.88l-329.24 1.83c-45.7,88.33 -47.55,360.11 0,450.3l424.36 0zm1689.4 332.31l-100.69 129.72c-1.23,1.87 -2.46,3.71 -3.7,5.55l-22.87 27.81 0 0.61 -17.92 22.24c-11.12,14.19 -32.11,16.06 -46.33,4.94 -14.2,-11.73 -16.67,-32.11 -4.95,-46.33l40.79 -50.64c0.61,-1.23 1.21,-1.85 1.83,-2.48l71.03 -91.42 -71.03 -91.43c-0.62,-0.59 -1.22,-1.21 -1.83,-2.46l-40.79 -50.64c-11.72,-14.21 -9.26,-34.58 4.95,-46.33 14.21,-11.11 35.21,-8.64 46.33,4.95l17.92 22.24 0 0.62 22.87 27.8c1.23,1.83 2.46,3.7 3.7,5.55l100.69 129.71zm-2832.73 0l101.28 129.72c0.62,1.87 1.86,3.71 3.09,5.55l22.86 27.81 0.61 0.61 17.31 22.24c11.73,14.19 32.11,16.06 46.32,4.94 14.21,-11.73 16.68,-32.11 4.95,-46.33l-40.15 -50.64c-1.23,-1.23 -1.84,-1.85 -2.46,-2.48l-71.04 -91.42 71.04 -91.43c0.62,-0.59 1.23,-1.21 2.46,-2.46l40.15 -50.64c11.73,-14.21 9.27,-34.58 -4.95,-46.33 -14.2,-11.11 -34.59,-8.64 -46.32,4.95l-17.31 22.24 -0.61 0.62 -22.86 27.8c-1.23,1.83 -2.47,3.7 -3.09,5.55l-101.28 129.71zm1437.96 -1777.72l523.21 468.21 726.39 38.31 40.15 730.72 486.13 540.48 -487.98 544.8 -38.3 725.8 -264.99 14.81c3.09,-3.71 6.18,-8.01 8.66,-12.35 8.64,-14.22 12.97,-31.49 13.57,-49.41l0 -4.95 180.37 -9.88 36.46 -689.96 464.49 -518.87 -462.65 -513.91 -37.67 -694.89 -690.58 -36.46 -8.64 -8.03 -510.21 -456.48 -513.93 462.05 -694.91 38.3 -36.42 690.58 -464.51 518.84 462.64 513.91 38.29 694.92 174.2 9.27 0 4.94c0,23.47 8.02,44.47 21,61.16l-257.58 -12.97 -40.15 -730.74 -486.13 -540.48 488.59 -544.81 37.69 -726.38 730.73 -40.15 540.49 -486.14 21.6 19.77zm1009.33 2294.12c3.09,-4.97 6.18,-9.27 9.26,-14.22 4.95,-6.79 9.27,-14.19 14.22,-21.62l7.4 -11.13c1.24,-2.46 2.46,-4.93 3.71,-7.39 25.93,-45.7 46.33,-93.89 61.15,-144.55 19.15,-64.86 28.41,-132.81 26.56,-202.6l-4.95 -129.71 -54.98 115.51c-47.55,87.7 -110.54,141.44 -183.44,178.51 -38.29,19.77 -80.3,35.21 -123.55,48.19 -1.22,0.61 -3.09,0.61 -4.32,1.23l-12.36 3.72 -3.09 1.21c-1.84,0 -3.09,0.63 -4.32,1.25l-40.77 12.97c-17.29,4.93 -26.56,23.47 -21.62,40.15 5.56,17.29 24.1,26.55 40.77,20.99l60.54 -18.52c1.22,-0.61 1.85,-0.61 3.09,-1.25 35.21,-10.49 69.17,-22.23 102.53,-36.44 64.87,-28.42 123.55,-66.7 174.81,-123.55 -5.56,33.36 -13.59,66.11 -24.7,97.61 -12.97,37.68 -29.64,73.51 -49.41,107.48l0 0.62c-0.63,0 -2.46,2.46 -3.72,5.55l-30.88 46.33c-9.88,14.81 -5.56,35.21 8.64,44.46 14.82,9.9 35.21,6.18 45.08,-8.64l4.34 -6.16zm-2058.15 0l4.33 6.16c9.88,14.82 29.65,18.54 44.47,8.64 14.82,-9.26 19.13,-29.65 9.26,-44.46l-30.88 -46.33c-1.84,-3.09 -3.09,-5.55 -3.71,-5.55l-0.62 -0.62c-19.77,-33.97 -35.83,-69.8 -48.8,-107.48 -11.11,-31.5 -19.15,-64.24 -24.7,-97.61 50.65,56.85 109.94,95.13 174.79,123.55 32.74,14.21 67.34,25.95 102.55,36.44 0.62,0.64 1.85,0.64 2.48,1.25l61.14 18.52c16.69,5.57 35.21,-3.7 40.15,-20.99 5.58,-16.69 -4.32,-35.23 -20.99,-40.15l-40.78 -12.97c-1.21,-0.62 -3.08,-1.25 -4.93,-1.25l-2.46 -1.21 -12.34 -3.72c-1.86,-0.62 -3.11,-0.62 -4.34,-1.23 -43.86,-12.98 -85.25,-28.42 -124.16,-48.19 -72.28,-37.07 -135.27,-90.81 -182.83,-178.51l-54.98 -115.51 -4.94 129.71c-1.85,69.79 7.41,137.74 25.93,202.6 14.83,50.66 35.82,98.85 61.77,144.55 0.62,2.46 1.85,4.93 3.72,7.39l7.41 11.13c4.31,7.42 9.26,14.82 13.57,21.62 3.09,4.95 6.79,9.26 9.9,14.22zm1056.87 138.36l0 74.73 0 1.25 0 38.9c0,14.82 -17.92,30.88 -33.35,30.26 -15.44,-0.61 -32.13,-17.29 -32.74,-31.49l0 -37.67 0.61 -1.25 0 -74.73c-37.65,-44.47 -234.7,-240.92 -691.8,-145.15l-1.23 458.31c89.57,-11.74 319.35,-32.74 489.83,18.54 1.25,0 3.09,0.6 4.33,0.6l6.18 2.47c4.94,1.23 9.88,3.1 14.81,4.95l0.63 0c-12.36,19.14 -24.1,38.29 -35.21,58.06l-6.8 -2.46c-0.61,0 -1.86,-0.64 -2.46,-0.64 -200.76,-60.52 -497.87,-11.72 -499.11,-11.72 -1.23,0.61 -3.08,0.61 -4.94,0.61 -17.91,0 -32.74,-14.82 -32.74,-32.72l0.63 -405.84 -107.49 0.62 -1.22 569.5c94.5,-40.15 319.97,-119.2 610.27,-98.83 1.86,0 3.09,0 4.95,0l26.56 2.48c-8.03,14.2 -16.68,29.63 -24.09,44.46 -3.71,6.18 -6.81,12.36 -9.89,18.52 -360.73,-25.31 -613.98,108.11 -625.1,113.67 -4.34,3.09 -9.88,4.33 -15.44,4.33 -18.52,0 -33.35,-14.83 -33.35,-32.74l1.24 -654.13c0,-17.9 14.81,-32.74 32.73,-32.74l141.45 -0.61 0 -50.04c-0.61,-15.45 9.88,-30.26 25.32,-33.35 460.82,-105.01 691.2,69.18 764.7,142.68 73.5,-73.5 303.91,-247.69 764.71,-142.68 15.44,3.09 25.95,17.9 25.31,33.35l0 50.04 140.86 0.61c18.52,0 32.74,14.84 32.74,32.74l1.21 654.13c0,17.91 -14.18,32.74 -32.74,32.74 -5.54,0 -11.11,-1.24 -16.06,-4.33 -10.51,-5.56 -250.78,-140.21 -612.12,-114.28l-1.23 0 -1.23 0c-3.1,-6.18 -6.18,-11.73 -9.27,-17.91 -8.04,-15.44 -16.07,-30.26 -24.73,-45.08l30.28 -3.09c1.86,0 3.72,0 4.95,0 290.31,-19.75 502.17,59.91 596.69,100.06l-1.23 -569.5 -107.47 -0.62 0.61 405.84c0,17.9 -14.83,32.72 -32.74,32.72 -1.86,0 -3.7,0 -4.95,-0.61 -1.21,0 -284.14,-53.14 -485.5,7.39 -0.63,0 -1.85,0.63 -2.46,0.63l-11.11 4.34c-11.76,-19.77 -23.49,-38.92 -35.83,-58.08l5.55 -1.83c4.93,-1.86 9.88,-3.71 14.82,-4.96l6.79 -2.46c1.23,0 2.46,-0.62 3.7,-0.62 170.49,-51.26 386.07,-25.94 476.26,-14.2l-1.25 -458.31c-457.1,-95.77 -654.13,100.67 -691.81,145.15zm-179.75 -241.52c131.57,52.51 169.87,50.65 302.05,-3.08 25.95,-9.9 52.51,-21.02 80.3,-33.97 56.21,-26.56 116.12,-60.55 176.05,-100.7l0.61 0c80.32,18.56 166.16,16.69 252.03,-5.54 109.33,-29.04 218.05,-90.81 312.54,-182.85 112.44,-110.56 195.2,-254.49 229.17,-393.46 33.34,-134.68 21.62,-266.23 -50.03,-362.59l-80.29 -108.1 24.7 132.18c11.74,63.02 9.88,109.96 -1.85,149.49 -2.46,8.64 -5.55,16.68 -8.64,24.72 -6.79,-126.01 -29.65,-243.38 -68.57,-336.03 -47.57,-112.42 -118.6,-189.01 -213.09,-202.59l-56.22 -7.43 23.48 51.26c107.47,239.07 108.71,450.92 50.02,632.54 -75.37,233.49 -250.17,416.93 -424.98,540.48 -59.91,-18.54 -114.26,-51.26 -160.59,-98.83 -55.59,-56.21 -99.44,-134.05 -125.37,-234.11l-1.25 -4.33 -2.46 -3.72c-9.27,-14.81 -11.73,-32.11 -13.59,-48.8 -5.56,-38.89 -10.51,-75.33 -65.49,-107.47 -17.28,-9.88 -36.43,-12.34 -54.97,-11.74 -22.23,1.86 -43.85,9.88 -56.82,17.92 -26.56,16.68 -40.78,39.54 -48.19,56.81 -24.08,-1.21 -46.32,6.81 -65.47,21.02 -29.65,22.23 -51.26,58.05 -65.48,94.49l-30.26 74.75 72.25 -35.23c12.36,-5.55 45.1,-10.49 72.9,-3.72 9.9,1.87 18.54,5.58 23.47,11.13 3.7,3.72 5.57,9.9 4.95,19.77 -2.46,25.95 -24.1,66.71 -76.59,127.26 -71.03,60.53 -143.31,99.44 -213.73,120.46 -90.2,-64.86 -180.38,-145.17 -256.35,-240.92 -137.75,-172.33 -229.17,-392.85 -193.34,-653.5 11.74,-86.49 37.68,-178.52 80.94,-274.27l22.84 -51.26 -55.58 7.43c-95.13,13.58 -166.17,90.17 -213.12,202.59 -38.9,92.65 -61.77,210.02 -68.55,336.03 -3.09,-8.04 -6.19,-16.07 -8.66,-24.72 -11.72,-39.53 -13.58,-86.47 -1.84,-149.49l24.08 -132.18 -79.68 108.1c-97.58,130.93 -83.99,326.13 1.25,505.89 43.85,92.65 106.24,180.97 182.21,254.47 76.6,73.52 166.79,132.81 264.99,164.94 91.42,30.26 189.02,38.29 289.7,14.2 69.8,48.19 139.61,86.47 202.63,114.89 23.45,10.5 46.3,19.77 67.92,27.8zm226.69 508.98c25.33,30.89 49.42,62.38 72.29,95.13 30.88,45.08 59.29,92.03 85.24,140.83 26.56,51.26 50.65,104.38 71.04,158.76 20.38,53.74 37.04,109.33 50.02,166.14l4.96 21.01 1.21 4.32 -3.7 1.86 -19.75 8.64c-32.74,15.44 -63.63,33.35 -92.67,53.76 -29.63,20.37 -56.82,43.22 -82.14,68.54 -66.1,65.49 -98.85,127.88 -138.99,204.45l-12.36 22.88 -4.31 8.65 -1.87 -3.72 -2.46 3.72 -4.33 -8.65 -12.36 -22.88c-40.14,-76.58 -72.25,-138.97 -138.97,-204.45 -25.32,-25.32 -52.51,-48.17 -82.15,-68.54 -29.03,-20.4 -59.92,-38.32 -92.66,-53.76l-19.14 -8.64 -4.33 -1.86 1.23 -4.32 4.96 -21.01c12.94,-56.81 30.25,-112.4 50.02,-166.14 20.38,-54.38 44.46,-107.49 71.04,-158.76 25.94,-48.8 54.34,-95.75 85.24,-140.83 30.88,-43.86 62.37,-84.63 98.23,-124.77 12.94,-12.37 24.7,-15.45 45.08,-14.83 24.7,1.25 29.04,4.33 37.68,10.51 7.41,5.55 16.06,12.34 33.96,33.97zm129.11 -602.26c40.76,-19.77 83.39,-42.6 127.24,-69.78 -51.26,-22.86 -99.43,-54.98 -140.82,-97.6 -62.39,-62.99 -111.19,-148.87 -140.23,-257.58 -13.59,-24.1 -16.69,-46.95 -19.76,-68.57 -3.09,-23.46 -6.8,-45.7 -34.6,-61.75 -5.55,-3.1 -12.96,-4.34 -19.75,-3.72 -11.75,0.61 -21.62,4.33 -27.8,8.02 -20.99,13.59 -27.17,35.85 -29.03,43.86 -3.08,11.75 -4.95,18.53 -19.17,24.7l-11.11 4.96 -11.74 -3.72c-14.82,-5.56 -27.79,-2.46 -38.89,5.55 -5.58,4.33 -10.51,9.29 -15.45,15.45 14.21,-0.61 28.4,0.62 41.38,3.7 21.01,4.95 40.78,14.21 54.99,29.65 15.44,16.69 24.7,38.92 21.62,67.95 -3.72,38.29 -29.67,92.04 -93.27,164.33l-1.25 1.84 -1.85 1.23c-63,54.37 -127.24,92.66 -190.85,117.97 53.1,33.36 104.38,60.53 152.55,82.16 171.12,77.22 230.4,70.41 397.8,-8.66zm675.76 -634.36c-73.5,227.92 -233.49,409.53 -401.51,538.01 53.75,5.54 109.35,0.61 164.94,-14.19 99.43,-25.95 198.28,-82.16 284.75,-166.79 104.4,-102.54 180.98,-235.33 212.48,-363.83 14.22,-56.19 19.17,-111.17 14.22,-162.44l-1.85 6.18c-14.22,48.8 -40.15,88.94 -72.9,130.31l-56.82 70.43 1.23 -90.81c2.46,-155.04 -19.77,-305.14 -65.46,-415.09 -27.19,-63.61 -61.77,-113.66 -103.78,-141.44 86.47,227.91 82.14,432.37 24.7,609.65zm-1572.03 512.06c63,21.01 130.34,29.66 198.89,22.24 -79.06,-61.78 -156.27,-134.64 -222.98,-218.66 -147.02,-184.07 -244.62,-420.64 -206.32,-700.47 9.9,-72.28 28.43,-147 58.09,-224.83 -42.01,27.78 -76.61,77.83 -103.78,141.44 -46.33,109.95 -68.57,260.05 -65.49,415.09l1.23 90.81 -56.83 -70.43c-33.35,-41.38 -58.68,-81.51 -73.5,-130.31l-1.84 -6.18c-8.64,90.8 14.82,194.55 61.75,294.01 40.79,85.86 98.85,168.02 169.25,235.96 70.41,67.95 152.58,121.68 241.52,151.33zm971.63 -1045.13l400.87 0c-8.64,-30.27 -60.52,-137.76 -80.89,-133.43 -51.88,11.12 -97.6,9.89 -141.47,-33.97 -40.14,-45.08 -37.67,-95.13 -24.7,-149.48 -61.14,-48.8 -195.82,-111.82 -293.42,-122.3 9.27,27.17 35.83,63.61 50.05,95.74 64.86,147.02 54.96,216.8 89.56,343.44zm259.44 -324.3c-92.66,21.62 -54.98,158.76 35.82,132.19 77.21,-22.24 52.51,-153.8 -35.82,-132.19zm-722.7 232.26c19.76,12.36 28.41,17.92 46.32,39.53 15.44,17.29 22.24,29.65 29.05,51.88l321.19 0.62c0,-96.97 -73.5,-372.46 -164.3,-437.32 -120.46,-85.86 -221.14,232.24 -232.26,345.28zm-77.84 59.93c-85.85,30.24 -39.52,155.65 45.09,129.09 84.62,-27.18 45.1,-161.22 -45.09,-129.09zm555.94 452.14c40.75,31.5 69.16,33.97 82.76,95.13l333.55 0c46.96,-147.61 49.42,-348.39 1.23,-450.3l-426.2 -1.83c3.7,59.28 8.66,114.26 9.88,174.17 1.25,59.3 -4.93,126.63 -1.21,182.83zm19.76 151.34c34.58,-85.86 -94.51,-129.11 -126.63,-54.36 -38.32,89.57 92.64,140.22 126.63,54.36z"/>
   <path class="fil0" d="M4165.47 983.75l-2.87 3.21c-20.76,-1.29 -52.9,-1.93 -96.35,-1.93 -43.24,0 -75.27,0.64 -96.05,1.93l-2.87 -3.21 0 -20.87 3.21 -3.08c21.18,-1.28 33.32,-2.33 36.41,-3.2 6.08,-1.59 9.59,-5.44 10.65,-11.5 2.65,-15.01 4.04,-47.18 4.04,-96.67l0 -165.03c0,-49.52 -1.39,-81.77 -4.04,-96.67 -1.07,-6.08 -4.58,-9.9 -10.65,-11.61 -3.09,-0.75 -15.23,-1.82 -36.41,-3.09l-3.21 -3.09 0 -21.18 3.21 -2.87c19.91,1.28 51.95,1.92 96.03,1.92 43.86,0 75.81,-0.64 95.72,-1.92l3.19 2.87 0 21.18 -3.19 3.09c-21.2,1.28 -33.34,2.34 -36.41,3.09 -6.08,1.7 -9.59,5.53 -10.65,11.61 -2.66,14.9 -4.05,47.15 -4.05,96.67l0 165.03c0,49.49 1.39,81.66 4.05,96.67 1.06,6.06 4.57,9.9 10.65,11.5 3.08,0.86 15.21,1.92 36.41,3.2l3.19 3.08 0 20.87zm7165.32 1072.06l84.47 2.77c55.37,1.84 91.84,2.78 108.92,2.78 15.22,0 79.83,-1.85 194.06,-5.55l5.31 4.85 0 33.68 -5.31 4.85c-31.14,0.94 -55.15,2.31 -72,3.92 -17.08,1.84 -29.31,5.31 -36.92,10.15 -7.62,5.08 -12.68,16.62 -15.23,34.86 -2.52,18.22 -3.68,43.61 -3.68,76.16l-1.39 155.52 0 312.92 0.69 131.77c0.45,51 1.85,83.99 4.15,98.76 2.08,15.02 5.31,24.93 9.69,29.77 4.39,5.09 12.46,9.25 24.69,12.47 12.23,3.46 42.23,6 89.99,7.85l5.31 3.92 0 33.92 -5.31 5.31c-2.31,0 -41.99,-1.15 -119.07,-3.92 -32.08,-0.93 -57,-1.39 -74.99,-1.39 -14.08,0 -78.47,1.85 -193.39,5.31l-5.54 -5.31 0 -33.92 5.54 -3.92c42,-1.84 69.91,-4.15 83.77,-6.7 14.07,-2.76 23.3,-6.23 28.15,-10.62 4.61,-4.15 8.53,-13.38 11.54,-27.22 2.76,-14.07 4.61,-45.23 4.85,-93.47l0.69 -142.61 0 -312.92 -1.16 -132.01c-0.47,-51.22 -1.84,-84.44 -3.94,-99.21 -1.84,-15.01 -5.07,-24.93 -9.46,-29.77 -4.14,-5.09 -12.45,-9.01 -24.46,-12.25 -12.23,-3.22 -42.23,-5.52 -89.99,-7.37l-5.54 -4.85 0 -33.68 5.54 -4.85zm-83.77 586.83l0 20.33 -2.78 8.07 -33.22 19.6c-8.08,5.09 -12.69,8.76 -14.08,11.55 -1.37,2.76 -3,16.14 -5.07,40.15 -2.08,24.24 -3,53.54 -3,88.38 0,39.23 2.31,81.7 7.37,127.61l-4.13 6.92c-123.48,47.32 -250.39,70.84 -380.54,70.84 -100.16,0 -190.38,-18.91 -271.15,-56.77 -80.52,-37.84 -144.68,-93.91 -191.99,-168.21 -47.3,-74.32 -70.84,-162.7 -70.84,-265.17 0,-155.76 53.07,-279.92 159.68,-371.75 106.61,-91.84 245.77,-137.99 417.68,-137.99 126,0 239.54,21.46 339.93,64.38l4.85 7.37c-8.31,30.24 -17.78,93.48 -28.4,189.92l-5.55 4.85 -31.13 0 -5.31 -5.55 -3.47 -71.54c-1.39,-23.54 -2.78,-37.14 -4.39,-41.3 -1.61,-4.15 -6.46,-9.46 -14.54,-15.93 -8.07,-6.46 -28.85,-16.83 -62.53,-31.15 -33.47,-14.08 -67.16,-24.46 -101.08,-30.92 -33.69,-6.71 -69.91,-9.92 -108.69,-9.92 -82.61,0 -155.54,17.08 -219.23,51.46 -63.47,34.15 -111.46,84.22 -143.53,149.76 -32.31,65.53 -48.46,138.47 -48.46,218.54 0,83.07 17.54,160.16 52.15,231.69 34.61,71.3 84.46,127.14 149.31,167.3 65.08,40.15 140.53,60.22 226.6,60.22 37.38,0 75.45,-3.7 114.47,-11.31 38.99,-7.37 71.06,-17.75 96.45,-31.37 3.92,-14.31 6,-43.39 6,-87.23l0 -75c0,-35.53 -2.08,-57.69 -6.7,-66.68 -4.61,-8.77 -15.69,-15.02 -33.47,-18.47 -17.75,-3.68 -56.3,-5.99 -115.38,-6.68l-6 -6.24 0 -29.77 6 -6 41.31 1.4c70.85,2.3 128.52,3.23 173.06,3.23 25.62,0 63.47,-1.15 112.86,-3.94l6.92 5.31zm-1439.28 -586.83l84.46 2.77c55.38,1.84 91.84,2.78 108.92,2.78 15.23,0 79.84,-1.85 194.07,-5.55l5.31 4.85 0 33.68 -5.31 4.85c-31.14,0.94 -55.15,2.31 -72,3.92 -17.08,1.84 -29.31,5.31 -36.92,10.15 -7.62,5.08 -12.68,16.62 -15.23,34.86 -2.53,18.22 -3.68,43.61 -3.68,76.16l-1.39 155.52 0 312.92 0.69 131.77c0.45,51 1.84,83.99 4.15,98.76 2.07,15.02 5.31,24.93 9.68,29.77 4.4,5.09 12.47,9.25 24.7,12.47 12.23,3.46 42.23,6 89.99,7.85l5.31 3.92 0 33.92 -5.31 5.31c-2.31,0 -42,-1.15 -119.07,-3.92 -32.08,-0.93 -57,-1.39 -75,-1.39 -14.07,0 -78.46,1.85 -193.38,5.31l-5.55 -5.31 0 -33.92 5.55 -3.92c41.99,-1.84 69.91,-4.15 83.77,-6.7 14.08,-2.76 23.3,-6.23 28.16,-10.62 4.61,-4.15 8.53,-13.38 11.54,-27.22 2.76,-14.07 4.61,-45.23 4.85,-93.47l0.69 -142.61 0 -312.92 -1.15 -132.01c-0.47,-51.22 -1.85,-84.44 -3.94,-99.21 -1.84,-15.01 -5.07,-24.93 -9.46,-29.77 -4.14,-5.09 -12.45,-9.01 -24.46,-12.25 -12.23,-3.22 -42.23,-5.52 -89.99,-7.37l-5.55 -4.85 0 -33.68 5.55 -4.85zm-860.76 4.85l5.55 -4.85c111.68,3.7 176.3,5.55 193.38,5.55 15.23,0 79.84,-1.85 194.06,-5.55l5.31 4.85 0 33.68 -5.31 4.85c-31.13,0.94 -55.14,2.31 -71.99,3.92 -17.07,1.84 -29.31,5.31 -36.92,10.15 -7.62,5.08 -12.69,16.62 -15.23,34.86 -2.53,18.22 -3.68,43.61 -3.68,76.16l-1.4 155.52 0 298.84c0,74.76 0.46,126.91 1.4,156.68l3.46 116.99 137.77 0c110.07,0 178.61,-1.37 205.83,-3.92 27.24,-2.76 53.54,-9.46 78.91,-19.6 4.85,-11.31 12.01,-37.39 21.24,-77.78 9.23,-40.6 14.08,-64.14 14.54,-70.37l6 -5.31 33.22 0 4.61 5.31c-3.46,17.99 -7.37,52.83 -11.07,104.76 -3.92,51.92 -5.77,93.7 -5.77,125.76l-5.31 5.31c-85.61,-2.54 -198.22,-3.92 -337.38,-3.92l-197.51 -1.39c-45.02,0 -90.93,1.85 -137.77,5.31l-5.55 -5.31 0 -22.38 5.55 -6.68c27.92,-14.56 43.15,-23.33 45.91,-26.31 2.55,-3.23 5.55,-32.31 8.31,-87.24 3,-54.92 4.39,-121.37 4.39,-198.68l0 -290.07 -1.15 -132.01c-0.46,-51.22 -1.85,-84.44 -3.94,-99.21 -1.83,-15.01 -5.07,-24.93 -9.45,-29.77 -4.15,-5.09 -12.46,-9.01 -24.69,-12.25 -12.01,-3.22 -42.01,-5.52 -89.77,-7.37l-5.55 -4.85 0 -33.68zm-57.44 -4.85l6.23 6.24c-4.16,40.39 -6.23,111.23 -6.23,212.29l-5.31 5.31 -31.85 0 -5.31 -6 -7.62 -62.29c-3.46,-33.24 -6.46,-53.78 -8.31,-61.16 -2.07,-7.38 -5.29,-12.92 -9.92,-16.15 -4.37,-3.47 -19.14,-6.24 -43.84,-8.55 -24.91,-2.31 -52.61,-3.46 -83.07,-3.46l-127.85 0c-3.68,102 -5.52,160.83 -5.52,176.54l0 394.15 1.39 131.77c0.45,51 1.61,83.99 3.68,99.22 2.08,15.01 5.31,24.93 9.46,29.55 4.39,4.85 12.69,9.01 24.7,12.23 12.22,3.46 42.45,6 90.69,7.85l4.61 3.92 0 33.92 -4.61 5.31c-115.39,-3.46 -179.77,-5.31 -193.39,-5.31 -14.53,0 -78.68,1.85 -192.69,5.31l-5.31 -5.31 0 -33.92 5.31 -3.92c42.47,-1.84 70.39,-4.15 84.23,-6.7 13.62,-2.76 22.85,-6.23 27.69,-10.62 4.61,-4.15 8.55,-13.38 11.78,-27.22 3.23,-14.07 4.85,-45.23 4.85,-93.47l1.37 -142.61 0 -394.15c0,-7.15 -1.83,-66 -5.52,-176.54l-100.85 0c-41.29,0 -77.07,0.94 -107.31,2.76 -30.22,1.85 -47.76,6.47 -52.38,13.86 -4.85,7.37 -9.25,31.61 -13.38,72.69l-6.7 62.29 -6 6 -31.16 0 -5.31 -5.31c-0.92,-108.68 -2.98,-179.52 -6.23,-212.29l6.23 -6.24c78.46,3.7 208.85,5.55 391.37,5.55 186.23,0 316.85,-1.85 392.08,-5.55zm-1922.05 960.22l-6 -6.24 0 -31.14 6 -5.31c27.7,-0.47 49.61,-2.08 66,-4.85 16.38,-2.55 27,-7.16 31.85,-13.39 4.61,-6.24 7.86,-16.38 9.46,-30.45 1.61,-14.08 3,-45.47 4.61,-94.62 1.61,-49.15 2.55,-84.23 2.55,-105.46l0 -546.21c0,-23.08 -4.39,-40.15 -12.7,-51.24 -8.31,-10.84 -19.6,-17.99 -34.14,-20.75 -14.31,-3.01 -39.02,-4.61 -73.63,-5.08l-5.31 -5.54 0 -31.62 5.31 -6.22c62.32,2.31 102.92,3.46 122.31,3.46 45.69,0 83.09,-1.15 112.39,-3.46l215.53 279.91 317.06 397.61c38.31,48.22 77.31,93.91 116.99,137.08l0 -523.15c0,-16.38 -0.68,-50.76 -2.31,-103.84 -1.61,-52.84 -3.46,-86.54 -5.76,-100.61 -2.31,-14.31 -6.23,-23.76 -11.78,-28.85 -5.76,-4.84 -16.38,-8.77 -31.83,-11.08 -15.46,-2.52 -36.7,-3.91 -63.22,-4.37l-5.31 -5.55 0 -30.92 5.31 -6.22c36.45,2.31 88.6,3.46 156.22,3.46 61.62,0 106.61,-1.15 134.54,-3.46l6 6.22 0 30.92 -5.31 5.55c-29.77,0.46 -52.85,2.07 -69,5.07 -16.17,2.77 -26.3,7.62 -30.46,14.54 -4.15,6.7 -6.92,16.62 -8.55,29.77 -1.37,12.92 -3,44.08 -4.6,93.23 -1.61,49.15 -2.31,84.46 -2.31,106.15l0 321 0.69 185.99c0.69,60.92 1.61,121.84 2.54,183.24 -22.38,-7.62 -61.39,-17.08 -117.01,-28.4l-48 -56.77 -143.99 -175.84 -458.29 -572.52 0 518.51c0,20.78 0.92,57.7 2.31,110.77 1.61,53.3 3.46,85.38 5.76,96.69 2.31,11.31 5.31,19.15 8.77,23.3 3.7,4.39 11.53,8.31 23.3,12.01 12.01,3.47 36.7,5.53 74.08,6l5.52 5.31 0 31.83 -5.52 5.55c-23.32,-3.24 -61.16,-4.85 -113.53,-4.85 -67.16,0 -126,1.61 -176.55,4.85zm-840.9 -955.37l5.31 -4.85c154.62,2.77 253.61,4.16 296.76,4.16 147.91,0 279.45,-1.39 394.84,-4.16l3.46 4.85c-11.31,43.15 -19.62,110.99 -24.93,203.53l-4.13 5.31 -33.24 0 -5.99 -5.31c0.46,-4.16 0.69,-7.84 0.69,-10.84 0,-38.31 -3.01,-74.76 -8.77,-109.61 -28.37,-12.68 -67.6,-20.75 -117.91,-24.69 -50.3,-3.68 -88.16,-5.77 -113.31,-5.77 -35.53,0 -81.23,2.55 -136.62,7.62l-2.52 108 -2.08 123.68 -2.08 137.31c48.7,2.77 93.46,4.16 134.53,4.16 41.54,0 76.16,-1.39 104.07,-4.16 27.93,-2.54 44.31,-5.52 49.15,-8.31 4.63,-3 8.31,-8.76 10.62,-17.08 2.54,-8.29 4.61,-23.07 6.46,-44.3l2.79 -41.78 5.31 -5.53 31.13 0 5.55 5.53c-0.94,49.15 -2.08,98.54 -3.46,147.93l3.46 152.31 -5.55 5.31 -31.13 0 -5.31 -5.31 -4.85 -40.62c-3.92,-31.62 -6.92,-50.31 -8.76,-56.54 -1.61,-6 -6,-11.31 -12.47,-15.93 -6.46,-4.39 -23.3,-8.07 -50.3,-10.85 -27.01,-2.53 -64.15,-3.92 -111.47,-3.92 -26.3,0 -66.23,1.15 -119.76,3.46 -2.31,37.86 -3.46,100.85 -3.46,189.23 0,94.62 1.15,164.32 3.46,208.83l124.37 0c109.61,0 177.94,-1.37 205.61,-3.92 27.46,-2.76 53.54,-9.46 78.46,-19.6 3.94,-10.4 10.62,-34.39 19.86,-72 9.23,-37.86 14.54,-61.4 15.91,-70.84l6.7 -4.63 32.53 0 5.31 4.63c-3.92,19.36 -8.07,53.3 -11.77,101.53 -3.92,48.23 -5.77,89.53 -5.77,123.69l-4.85 5.31c-86.08,-2.54 -198.68,-3.92 -337.84,-3.92l-183.91 -1.39c-42.92,0 -87.45,1.85 -133.84,5.31l-5.54 -5.31 0 -22.38 5.54 -6.68c26.54,-13.62 41.78,-21.93 45.45,-25.4 3.94,-3.22 7.16,-42.68 9.47,-118.38 2.55,-75.46 3.7,-132.93 3.7,-172.61l0 -248.08 -0.45 -153.46c0,-33.45 -0.48,-60.69 -1.4,-81.46 -0.91,-21 -2.54,-35.99 -4.85,-45 -2.31,-8.99 -4.85,-15.45 -7.62,-18.91 -3,-3.7 -7.84,-6.7 -14.3,-9.25 -6.47,-2.52 -17.78,-4.61 -33.47,-6.46l-51.46 -3.92 -5.31 -4.85 0 -33.68zm-93.23 581.98l0 20.33 -2.78 8.07 -33.22 19.6c-8.07,5.09 -12.68,8.76 -14.07,11.55 -1.38,2.76 -3,16.14 -5.08,40.15 -2.08,24.24 -3,53.54 -3,88.38 0,39.23 2.31,81.7 7.38,127.61l-4.14 6.92c-123.48,47.32 -250.39,70.84 -380.54,70.84 -100.15,0 -190.38,-18.91 -271.14,-56.77 -80.53,-37.84 -144.69,-93.91 -192,-168.21 -47.3,-74.32 -70.84,-162.7 -70.84,-265.17 0,-155.76 53.07,-279.92 159.68,-371.75 106.61,-91.84 245.77,-137.99 417.69,-137.99 126,0 239.53,21.46 339.92,64.38l4.85 7.37c-8.31,30.24 -17.78,93.48 -28.4,189.92l-5.54 4.85 -31.14 0 -5.31 -5.55 -3.46 -71.54c-1.4,-23.54 -2.79,-37.14 -4.4,-41.3 -1.6,-4.15 -6.46,-9.46 -14.53,-15.93 -8.08,-6.46 -28.85,-16.83 -62.54,-31.15 -33.46,-14.08 -67.16,-24.46 -101.08,-30.92 -33.69,-6.71 -69.91,-9.92 -108.68,-9.92 -82.62,0 -155.55,17.08 -219.24,51.46 -63.47,34.15 -111.46,84.22 -143.53,149.76 -32.31,65.53 -48.46,138.47 -48.46,218.54 0,83.07 17.54,160.16 52.15,231.69 34.62,71.3 84.47,127.14 149.31,167.3 65.08,40.15 140.53,60.22 226.6,60.22 37.38,0 75.46,-3.7 114.47,-11.31 38.99,-7.37 71.06,-17.75 96.45,-31.37 3.92,-14.31 6.01,-43.39 6.01,-87.23l0 -75c0,-35.53 -2.09,-57.69 -6.71,-66.68 -4.6,-8.77 -15.69,-15.02 -33.46,-18.47 -17.76,-3.68 -56.31,-5.99 -115.39,-6.68l-6 -6.24 0 -29.77 6 -6 41.32 1.4c70.84,2.3 128.52,3.23 173.06,3.23 25.61,0 63.47,-1.15 112.86,-3.94l6.91 5.31zm-2060.03 373.85l-6 -5.31 0 -35.07 6 -5.55c32.77,-0.46 54.01,-2.07 63.47,-5.07 9.47,-2.77 17.99,-8.77 25.38,-17.54 7.39,-8.77 22.38,-37.62 45.01,-86.07l71.06 -154.16 183.92 -416.53c34.61,-81.68 69,-163.14 103.39,-244.84l43.84 0 288.69 678.91 38.53 90.47c11.31,25.84 24.24,53.77 39.01,83.99 14.54,30 24.67,47.99 30.22,53.3 5.77,5.31 12.68,9.7 20.99,12.47 8.31,3 27.01,4.6 55.86,5.07l5.31 5.55 0 35.07 -5.31 5.31c-47.78,-3.92 -90.93,-6 -129.25,-6 -74.76,2.31 -149.52,4.39 -224.3,6l-5.53 -5.31 0 -35.07 5.53 -5.55c50.54,-0.92 81.94,-3 94.62,-6.47 12.68,-3.21 18.93,-11.07 18.93,-23.3 0,-9.92 -3.24,-22.85 -9.47,-39.23l-83.07 -206.06 -391.62 0 -73.61 173.06c-13.16,31.16 -19.62,53.78 -19.62,68.31 0,11.31 6,19.6 18.23,24.91 12.23,5.55 42.93,8.31 92.08,8.77l6 5.55 0 35.07 -5.54 5.31c-58.14,-3.46 -108.92,-5.31 -152.76,-5.31 -49.61,0 -99.46,1.85 -150,5.31zm308.3 -379.15l341.99 0 -169.62 -407.76 -172.38 407.76zm7441.91 -894.14l-2.85 3.16c-20.67,-1.26 -52.69,-1.9 -95.92,-1.9 -43.04,0 -74.93,0.64 -95.6,1.9l-2.87 -3.16 0 -20.78 3.19 -3.08c21.09,-1.28 33.17,-2.34 36.24,-3.19 6.04,-1.58 9.53,-5.39 10.6,-11.43 2.65,-14.96 4.02,-46.96 4.02,-96.25l0 -164.28c0,-49.28 -1.37,-81.4 -4.02,-96.24 -1.07,-6.04 -4.56,-9.87 -10.6,-11.56 -3.08,-0.73 -15.16,-1.8 -36.24,-3.06l-3.19 -3.08 0 -21.11 3.19 -2.86c19.82,1.29 51.71,1.91 95.61,1.91 43.66,0 75.45,-0.62 95.28,-1.91l3.17 2.86 0 21.11 -3.17 3.08c-21.09,1.26 -33.19,2.33 -36.24,3.06 -6.04,1.7 -9.55,5.52 -10.6,11.56 -2.65,14.83 -4.03,46.96 -4.03,96.24l0 164.28c0,49.3 1.38,81.29 4.03,96.25 1.05,6.04 4.56,9.85 10.6,11.43 3.06,0.84 15.16,1.91 36.24,3.19l3.17 3.08 0 20.78zm-231.39 0l-3.06 3.16c-1.5,0 -5.42,-0.1 -11.77,-0.31 -28.42,-1.07 -46.11,-1.59 -53.11,-1.59 -10.6,0 -27.35,0.64 -50.35,1.9 -0.86,-4.98 -4.77,-13.25 -11.77,-24.9l-77.05 -128.58 -34.46 -52.46c-4.34,-6.36 -10.49,-12.72 -18.34,-18.97l3.4 -10.49c4.76,0.19 8.26,0.31 10.6,0.31 20.24,0 36.24,-3.27 47.8,-9.64 10.6,-5.82 20.36,-15.89 29.25,-30.43 8.81,-14.52 13.26,-31.8 13.26,-51.82 0,-34.98 -13.04,-58.62 -39.13,-70.81 -12.39,-5.82 -30.51,-8.67 -54.26,-8.67 -10.4,0 -20.36,0.73 -29.89,2.44 -2.02,20.24 -3.08,54.9 -3.08,103.76l0 162.37c0,49.3 1.37,81.29 4.02,96.25 1.07,6.04 4.56,9.85 10.6,11.43 3.08,0.84 15.16,1.91 36.36,3.19l3.08 3.08 0 20.78 -2.76 3.16c-20.76,-1.26 -52.66,-1.9 -95.71,-1.9 -44.52,0 -76.43,0.64 -95.61,1.9l-3.06 -2.85 0 -21.09 3.06 -3.08c21.11,-1.28 33.19,-2.34 36.36,-3.19 5.95,-1.58 9.44,-5.39 10.51,-11.43 2.74,-14.96 4.03,-46.96 4.03,-96.25l0 -164.28c0,-49.28 -1.29,-81.4 -4.03,-96.24 -1.07,-6.04 -4.56,-9.87 -10.51,-11.56 -3.17,-0.73 -15.25,-1.8 -36.36,-3.06l-3.06 -3.08 0 -21.11 3.06 -2.86c20.24,1.29 52.15,1.91 95.61,1.91 25.23,0 45.79,-0.32 61.47,-0.95 31.27,-1.26 54.7,-1.9 70.16,-1.9 35.83,0 62.11,3.29 78.86,9.64 22.57,8.69 37.73,23.43 45.36,44.1 3.72,10.15 5.62,22.14 5.62,36.02 0,56.29 -31.69,96.24 -94.98,119.88 10.29,17.37 21.31,34.97 32.86,52.78l47.8 73.55c28.18,43.46 46.96,68.26 56.17,74.31 4.78,3.08 11.44,4.56 19.94,4.56l3.06 3.19 0 19.83zm-460.21 0l-2.74 3.16c-46,-1.26 -73.67,-1.9 -83.22,-1.9 -38.04,0 -73.44,0.64 -106.2,1.9l-2.76 -3.16 0 -19.52 3.08 -3.49 27.04 -1.48c11.33,-0.64 17.07,-4.67 17.07,-12.08 0,-4.34 -2.85,-14.09 -8.7,-29.25l-25.12 -65.5c-28.61,-0.42 -57.77,-0.64 -87.65,-0.64 -16.12,0 -40.07,0.22 -71.97,0.64l-13.68 37.84c-10.39,28.83 -15.58,46.84 -15.58,54.06 0,7.83 4.87,12.5 14.63,13.98 5.4,0.84 15.91,1.7 31.69,2.44l3.08 3.19 0 19.83 -3.08 3.16c-38.26,-1.26 -62.96,-1.9 -73.86,-1.9 -8.48,0 -29.58,0.64 -63.07,1.9l-3.08 -2.85 0 -20.13 3.39 -3.19c21.3,-1.17 34.45,-5.4 39.21,-12.72 4.88,-7.2 23.21,-50.35 54.91,-129.41l80.97 -202.78c6.04,-15.78 15.16,-39.41 27.35,-71.12l44.1 0 164.58 387.19c6.37,14.74 12.19,23.01 17.39,24.8 6.79,2.55 16.64,3.83 29.47,3.83l2.74 3.39 0 19.83zm-196.82 -167.06l-66.45 -162.69 -63.6 162.69c16.95,0.64 39.01,0.96 66.13,0.96 26.28,0 47.58,-0.32 63.91,-0.96zm-306.21 64.56c-4.55,30.32 -6.77,64.44 -6.77,102.5l-3.18 3.16 -225.66 -1.9c-37.73,0 -64.33,0.64 -79.81,1.9l-3.17 -3.16 0 -8.7 1.58 -3.72c15.26,-9.76 23.64,-15.8 24.8,-18.34 1.9,-3.7 3.08,-17.48 3.49,-41.22l0.86 -69.64 0 -157.39c0,-49.28 -1.28,-81.4 -4.03,-96.24 -1.06,-6.04 -4.56,-9.87 -10.51,-11.56 -3.16,-0.73 -15.25,-1.8 -36.36,-3.06l-3.06 -3.08 0 -21.11 3.06 -2.86c21.31,1.29 52.58,1.91 93.82,1.91 42.6,0 75.04,-0.62 97.19,-1.91l3.08 2.86 0 21.41 -3.08 2.77c-21.2,1.26 -33.28,2.33 -36.36,3.06 -6.04,1.7 -9.53,5.52 -10.6,11.56 -2.66,14.83 -4.03,46.96 -4.03,96.24l0 185.69c0,27.14 0.54,53.42 1.59,78.86l42.17 0c60.52,0 97.51,-2.34 111.19,-7.1 2.33,-0.84 3.92,-2.02 4.98,-3.5 2.01,-2.87 4.02,-9.01 5.93,-18.54l7.43 -38.59 3.08 -3.39 18.97 0 3.38 3.08zm-377 102.5l-2.74 3.16c-46.01,-1.26 -73.67,-1.9 -83.22,-1.9 -38.04,0 -73.44,0.64 -106.2,1.9l-2.76 -3.16 0 -19.52 3.08 -3.49 27.04 -1.48c11.33,-0.64 17.06,-4.67 17.06,-12.08 0,-4.34 -2.85,-14.09 -8.69,-29.25l-25.12 -65.5c-28.61,-0.42 -57.78,-0.64 -87.65,-0.64 -16.13,0 -40.07,0.22 -71.98,0.64l-13.68 37.84c-10.38,28.83 -15.57,46.84 -15.57,54.06 0,7.83 4.86,12.5 14.62,13.98 5.4,0.84 15.91,1.7 31.7,2.44l3.07 3.19 0 19.83 -3.07 3.16c-38.26,-1.26 -62.96,-1.9 -73.87,-1.9 -8.48,0 -29.58,0.64 -63.06,1.9l-3.08 -2.85 0 -20.13 3.38 -3.19c21.31,-1.17 34.46,-5.4 39.21,-12.72 4.89,-7.2 23.22,-50.35 54.92,-129.41l80.97 -202.78c6.04,-15.78 15.16,-39.41 27.34,-71.12l44.1 0 164.59 387.19c6.37,14.74 12.18,23.01 17.39,24.8 6.79,2.55 16.64,3.83 29.47,3.83l2.74 3.39 0 19.83zm-196.83 -167.06l-66.45 -162.69 -63.6 162.69c16.96,0.64 39.02,0.96 66.14,0.96 26.28,0 47.58,-0.32 63.9,-0.96zm-315.73 24.8c0,34.24 -9.76,64.35 -29.26,90.41 -16.95,23.01 -39.21,40.07 -66.77,51.21 -25.23,10.38 -55.32,15.57 -90.31,15.57 -43.46,0 -86.17,-9.96 -127.92,-29.79l-3.72 -6.88c5.74,-23.74 8.7,-57.66 8.7,-101.54l3.08 -3.08 19.82 0 2.86 3.08 0 7.19c0,11.57 1.26,26.82 3.7,45.91 7.43,13.24 20.77,24.7 40.07,34.12 20.02,9.96 41.02,14.94 62.75,14.94 40.91,0 69.3,-14.31 84.99,-42.82 8.17,-14.73 12.19,-29.89 12.19,-45.67 0,-26.51 -11.13,-45.47 -33.28,-56.82 -10.9,-5.62 -28.61,-10.27 -53.11,-13.99 -55.21,-8.48 -91.57,-19.18 -108.96,-32.01 -26.28,-19.39 -39.42,-49.5 -39.42,-90.31 0,-42.51 14.31,-76.32 42.83,-101.55 30.2,-26.49 72.27,-39.74 126.13,-39.74 48.44,0 87.54,7.74 117.32,23.32l2.12 7.41c-4.86,24.61 -7.94,54.27 -8.89,88.82l-3.49 3.08 -19.52 0 -3.18 -3.08c-0.52,-24.9 -1.58,-41.01 -3.06,-48.44 -6.37,-9.74 -17.61,-18.01 -33.5,-24.9 -16.96,-7 -34.65,-10.51 -53.11,-10.51 -27.77,0 -49.7,7.32 -65.81,22.05 -15.16,13.88 -22.7,31.8 -22.7,53.73 0,23.75 8.59,41.25 25.76,52.47 11.13,7.21 37.53,14.09 79.19,20.77 4.35,0.65 16.43,2.66 36.36,6.26 12.17,2.02 23.41,4.98 33.82,8.89 20.86,7.95 36.66,19.94 47.15,36.05 11.44,17.59 17.18,39.52 17.18,65.81zm-370.55 142.26l-2.75 3.16c-46,-1.26 -73.66,-1.9 -83.22,-1.9 -38.03,0 -73.44,0.64 -106.19,1.9l-2.77 -3.16 0 -19.52 3.08 -3.49 27.04 -1.48c11.34,-0.64 17.07,-4.67 17.07,-12.08 0,-4.34 -2.85,-14.09 -8.7,-29.25l-25.11 -65.5c-28.62,-0.42 -57.78,-0.64 -87.65,-0.64 -16.13,0 -40.07,0.22 -71.98,0.64l-13.68 37.84c-10.38,28.83 -15.58,46.84 -15.58,54.06 0,7.83 4.87,12.5 14.63,13.98 5.4,0.84 15.91,1.7 31.69,2.44l3.08 3.19 0 19.83 -3.08 3.16c-38.26,-1.26 -62.96,-1.9 -73.86,-1.9 -8.48,0 -29.58,0.64 -63.07,1.9l-3.08 -2.85 0 -20.13 3.39 -3.19c21.31,-1.17 34.45,-5.4 39.21,-12.72 4.88,-7.2 23.21,-50.35 54.91,-129.41l80.97 -202.78c6.04,-15.78 15.16,-39.41 27.35,-71.12l44.1 0 164.58 387.19c6.37,14.74 12.19,23.01 17.39,24.8 6.79,2.55 16.64,3.83 29.47,3.83l2.75 3.39 0 19.83zm-196.83 -167.06l-66.45 -162.69 -63.6 162.69c16.95,0.64 39.01,0.96 66.13,0.96 26.29,0 47.58,-0.32 63.91,-0.96zm-315.74 24.8c0,34.24 -9.76,64.35 -29.25,90.41 -16.96,23.01 -39.21,40.07 -66.78,51.21 -25.22,10.38 -55.32,15.57 -90.3,15.57 -43.46,0 -86.17,-9.96 -127.92,-29.79l-3.72 -6.88c5.73,-23.74 8.69,-57.66 8.69,-101.54l3.08 -3.08 19.83 0 2.85 3.08 0 7.19c0,11.57 1.26,26.82 3.7,45.91 7.43,13.24 20.78,24.7 40.07,34.12 20.03,9.96 41.03,14.94 62.75,14.94 40.91,0 69.31,-14.31 85,-42.82 8.16,-14.73 12.19,-29.89 12.19,-45.67 0,-26.51 -11.13,-45.47 -33.28,-56.82 -10.91,-5.62 -28.61,-10.27 -53.11,-13.99 -55.21,-8.48 -91.57,-19.18 -108.96,-32.01 -26.28,-19.39 -39.43,-49.5 -39.43,-90.31 0,-42.51 14.31,-76.32 42.84,-101.55 30.2,-26.49 72.27,-39.74 126.13,-39.74 48.44,0 87.54,7.74 117.32,23.32l2.12 7.41c-4.87,24.61 -7.95,54.27 -8.89,88.82l-3.5 3.08 -19.51 0 -3.19 -3.08c-0.51,-24.9 -1.58,-41.01 -3.06,-48.44 -6.37,-9.74 -17.6,-18.01 -33.49,-24.9 -16.96,-7 -34.66,-10.51 -53.11,-10.51 -27.77,0 -49.7,7.32 -65.81,22.05 -15.16,13.88 -22.7,31.8 -22.7,53.73 0,23.75 8.59,41.25 25.76,52.47 11.13,7.21 37.52,14.09 79.19,20.77 4.34,0.65 16.42,2.66 36.36,6.26 12.17,2.02 23.41,4.98 33.81,8.89 20.87,7.95 36.67,19.94 47.16,36.05 11.44,17.59 17.17,39.52 17.17,65.81zm-388.45 0c0,34.24 -9.76,64.35 -29.25,90.41 -16.96,23.01 -39.22,40.07 -66.78,51.21 -25.23,10.38 -55.32,15.57 -90.31,15.57 -43.45,0 -86.17,-9.96 -127.92,-29.79l-3.72 -6.88c5.74,-23.74 8.7,-57.66 8.7,-101.54l3.08 -3.08 19.83 0 2.85 3.08 0 7.19c0,11.57 1.26,26.82 3.7,45.91 7.43,13.24 20.77,24.7 40.07,34.12 20.02,9.96 41.03,14.94 62.75,14.94 40.91,0 69.3,-14.31 85,-42.82 8.16,-14.73 12.18,-29.89 12.18,-45.67 0,-26.51 -11.13,-45.47 -33.28,-56.82 -10.9,-5.62 -28.61,-10.27 -53.1,-13.99 -55.21,-8.48 -91.57,-19.18 -108.96,-32.01 -26.29,-19.39 -39.43,-49.5 -39.43,-90.31 0,-42.51 14.31,-76.32 42.83,-101.55 30.2,-26.49 72.28,-39.74 126.13,-39.74 48.44,0 87.55,7.74 117.32,23.32l2.12 7.41c-4.86,24.61 -7.94,54.27 -8.89,88.82l-3.49 3.08 -19.51 0 -3.19 -3.08c-0.51,-24.9 -1.58,-41.01 -3.06,-48.44 -6.37,-9.74 -17.61,-18.01 -33.5,-24.9 -16.95,-7 -34.65,-10.51 -53.11,-10.51 -27.77,0 -49.7,7.32 -65.81,22.05 -15.16,13.88 -22.7,31.8 -22.7,53.73 0,23.75 8.59,41.25 25.76,52.47 11.14,7.21 37.53,14.09 79.2,20.77 4.34,0.65 16.42,2.66 36.36,6.26 12.17,2.02 23.41,4.98 33.81,8.89 20.86,7.95 36.66,19.94 47.16,36.05 11.43,17.59 17.17,39.52 17.17,65.81zm-370.55 142.26l-2.75 3.16c-46,-1.26 -73.66,-1.9 -83.22,-1.9 -38.03,0 -73.43,0.64 -106.19,1.9l-2.76 -3.16 0 -19.52 3.07 -3.49 27.04 -1.48c11.33,-0.64 17.06,-4.67 17.06,-12.08 0,-4.34 -2.85,-14.09 -8.69,-29.25l-25.12 -65.5c-28.61,-0.42 -57.78,-0.64 -87.65,-0.64 -16.13,0 -40.07,0.22 -71.98,0.64l-13.68 37.84c-10.38,28.83 -15.57,46.84 -15.57,54.06 0,7.83 4.86,12.5 14.62,13.98 5.4,0.84 15.91,1.7 31.69,2.44l3.08 3.19 0 19.83 -3.08 3.16c-38.26,-1.26 -62.95,-1.9 -73.86,-1.9 -8.48,0 -29.58,0.64 -63.07,1.9l-3.08 -2.85 0 -20.13 3.39 -3.19c21.31,-1.17 34.45,-5.4 39.21,-12.72 4.89,-7.2 23.21,-50.35 54.92,-129.41l80.96 -202.78c6.05,-15.78 15.16,-39.41 27.35,-71.12l44.1 0 164.58 387.19c6.37,14.74 12.19,23.01 17.39,24.8 6.79,2.55 16.64,3.83 29.47,3.83l2.75 3.39 0 19.83zm-196.83 -167.06l-66.45 -162.69 -63.6 162.69c16.96,0.64 39.01,0.96 66.14,0.96 26.28,0 47.58,-0.32 63.9,-0.96zm-299.01 -245.89l-3.16 3.08c-24.39,0 -38.17,6.57 -41.25,19.6 -1.69,7.19 -2.96,22.88 -3.7,47.15 -0.64,18.03 -0.95,43.99 -0.95,77.91l0 95.71c0,61.48 -12.08,105.36 -36.36,131.64 -32.12,34.78 -77.8,52.15 -137.25,52.15 -54.27,0 -96.57,-9.01 -126.99,-27.02 -25.65,-15.27 -42.4,-37 -50.35,-65.19 -4.98,-18.01 -7.41,-64.97 -7.41,-140.98l0 -80.12c0,-49.28 -1.39,-81.4 -4.03,-96.24 -1.06,-6.04 -4.56,-9.87 -10.6,-11.56 -3.08,-0.73 -15.16,-1.8 -36.24,-3.06l-3.18 -3.08 0 -20.78 3.18 -3.19c19.81,1.29 51.72,1.91 95.6,1.91 44.72,0 76.52,-0.62 95.28,-1.91l3.19 3.19 0 20.78 -3.19 3.08c-21.09,1.26 -33.17,2.33 -36.24,3.06 -6.04,1.7 -9.54,5.52 -10.6,11.56 -2.66,14.83 -4.03,46.96 -4.03,96.24l0 64.01c0,78.22 3.5,126.13 10.49,143.72 14.1,34.76 48.77,52.15 104.09,52.15 36.24,0 64.44,-8.89 84.79,-26.7 9.53,-8.48 16.1,-17.07 19.82,-25.76 3.71,-8.7 6.69,-22.15 8.7,-40.39 1.9,-16.95 2.85,-34.12 2.85,-51.51l0 -64.65c0,-54.17 -0.22,-91.26 -0.64,-111.08 -0.42,-18.66 -1.69,-30.74 -3.7,-36.36 -1.7,-4.14 -5.31,-7.42 -10.93,-9.65 -4.75,-1.9 -17.48,-3.38 -38.14,-4.64l-3.19 -3.08 0 -20.78 3.19 -3.19c18.01,1.29 36.47,1.91 55.53,1.91 14.3,0 41.76,-0.62 82.26,-1.91l3.16 3.19 0 20.78zm-500.59 412.94l-3.08 3.16c-20.55,-1.26 -52.35,-1.9 -95.7,-1.9 -44.31,0 -76.1,0.64 -95.62,1.9l-2.74 -2.85 0 -21.09 3.08 -3.08c21.09,-1.28 33.17,-2.34 36.36,-3.19 5.93,-1.58 9.53,-5.39 10.49,-11.43 2.76,-14.96 4.13,-46.96 4.13,-96.25l0 -209.97 -69.32 141.93c-3.92,7.85 -17.37,36.88 -40.39,87.03l-56.79 124.11 -20.78 0c-10.82,-25.65 -25.33,-57.98 -43.77,-97.21l-43.46 -92.21 -81.4 -169.16 0 215.48c0,49.3 1.37,81.29 4.03,96.25 1.06,6.04 4.56,9.85 10.6,11.43 3.08,0.84 15.16,1.91 36.36,3.19l3.08 3.08 0 21.09 -3.08 2.85c-23.86,-1.26 -46.01,-1.9 -66.46,-1.9 -23.85,0 -47.81,0.64 -71.76,1.9l-3.08 -2.85 0 -21.09 3.08 -3.08c21.09,-1.28 33.17,-2.34 36.36,-3.19 5.93,-1.58 9.43,-5.39 10.49,-11.43 2.77,-14.96 4.03,-46.96 4.03,-96.25l0 -164.28c0,-49.28 -1.26,-81.4 -4.03,-96.24 -1.06,-6.04 -4.56,-9.87 -10.49,-11.56 -3.19,-0.73 -15.27,-1.8 -36.36,-3.06l-3.08 -3.08 0 -21.11 3.08 -2.86c21.51,1.29 48.75,1.91 81.61,1.91 25.34,0 47.38,-0.62 66.14,-1.91 6.88,15.8 16.64,37.95 29.25,66.45l19.83 42.84 98.78 206.56 47.48 -96.35 74.19 -158.65c8.69,-18.76 17.17,-39.12 25.53,-60.85 23.32,1.29 39.12,1.91 47.17,1.91 40.61,0 71.66,-0.62 93.16,-1.91l3.08 2.86 0 21.41 -3.08 2.77c-21.09,1.26 -33.28,2.33 -36.36,3.06 -6.04,1.7 -9.53,5.52 -10.6,11.56 -2.63,14.83 -4.02,46.96 -4.02,96.24l0 164.28c0,49.3 1.39,81.29 4.02,96.25 1.07,6.04 4.56,9.85 10.6,11.43 3.08,0.84 15.27,1.91 36.36,3.19l3.08 3.08 0 20.78zm-794.93 0l-3.08 3.16c-20.55,-1.26 -52.35,-1.9 -95.7,-1.9 -44.31,0 -76.09,0.64 -95.62,1.9l-2.74 -2.85 0 -21.09 3.08 -3.08c21.09,-1.28 33.17,-2.34 36.36,-3.19 5.93,-1.58 9.53,-5.39 10.49,-11.43 2.76,-14.96 4.13,-46.96 4.13,-96.25l0 -209.97 -69.32 141.93c-3.92,7.85 -17.37,36.88 -40.38,87.03l-56.8 124.11 -20.78 0c-10.82,-25.65 -25.33,-57.98 -43.77,-97.21l-43.46 -92.21 -81.4 -169.16 0 215.48c0,49.3 1.37,81.29 4.03,96.25 1.06,6.04 4.56,9.85 10.6,11.43 3.08,0.84 15.16,1.91 36.36,3.19l3.08 3.08 0 21.09 -3.08 2.85c-23.86,-1.26 -46.01,-1.9 -66.45,-1.9 -23.86,0 -47.82,0.64 -71.77,1.9l-3.08 -2.85 0 -21.09 3.08 -3.08c21.1,-1.28 33.18,-2.34 36.36,-3.19 5.93,-1.58 9.43,-5.39 10.49,-11.43 2.77,-14.96 4.03,-46.96 4.03,-96.25l0 -164.28c0,-49.28 -1.26,-81.4 -4.03,-96.24 -1.06,-6.04 -4.56,-9.87 -10.49,-11.56 -3.18,-0.73 -15.26,-1.8 -36.36,-3.06l-3.08 -3.08 0 -21.11 3.08 -2.86c21.51,1.29 48.75,1.91 81.61,1.91 25.34,0 47.38,-0.62 66.14,-1.91 6.88,15.8 16.64,37.95 29.25,66.45l19.83 42.84 98.78 206.56 47.48 -96.35 74.19 -158.65c8.69,-18.76 17.17,-39.12 25.53,-60.85 23.32,1.29 39.12,1.91 47.18,1.91 40.6,0 71.65,-0.62 93.15,-1.91l3.08 2.86 0 21.41 -3.08 2.77c-21.09,1.26 -33.28,2.33 -36.36,3.06 -6.04,1.7 -9.53,5.52 -10.6,11.56 -2.63,14.83 -4.02,46.96 -4.02,96.24l0 164.28c0,49.3 1.39,81.29 4.02,96.25 1.07,6.04 4.56,9.85 10.6,11.43 3.08,0.84 15.27,1.91 36.36,3.19l3.08 3.08 0 20.78zm-638.71 0l-2.85 3.16c-20.67,-1.26 -52.69,-1.9 -95.93,-1.9 -43.04,0 -74.93,0.64 -95.59,1.9l-2.87 -3.16 0 -20.78 3.18 -3.08c21.09,-1.28 33.18,-2.34 36.24,-3.19 6.04,-1.58 9.54,-5.39 10.6,-11.43 2.66,-14.96 4.03,-46.96 4.03,-96.25l0 -164.28c0,-49.28 -1.37,-81.4 -4.03,-96.24 -1.06,-6.04 -4.56,-9.87 -10.6,-11.56 -3.07,-0.73 -15.16,-1.8 -36.24,-3.06l-3.18 -3.08 0 -21.11 3.18 -2.86c19.83,1.29 51.72,1.91 95.62,1.91 43.66,0 75.45,-0.62 95.28,-1.91l3.17 2.86 0 21.11 -3.17 3.08c-21.09,1.26 -33.19,2.33 -36.24,3.06 -6.04,1.7 -9.55,5.52 -10.6,11.56 -2.66,14.83 -4.03,46.96 -4.03,96.24l0 164.28c0,49.3 1.37,81.29 4.03,96.25 1.05,6.04 4.56,9.85 10.6,11.43 3.06,0.84 15.16,1.91 36.24,3.19l3.17 3.08 0 20.78zm-246 -102.5c-4.56,30.32 -6.77,64.44 -6.77,102.5l-3.19 3.16 -225.65 -1.9c-37.74,0 -64.33,0.64 -79.82,1.9l-3.17 -3.16 0 -8.7 1.58 -3.72c15.27,-9.76 23.65,-15.8 24.8,-18.34 1.91,-3.7 3.08,-17.48 3.5,-41.22l0.86 -69.64 0 -157.39c0,-49.28 -1.29,-81.4 -4.03,-96.24 -1.07,-6.04 -4.56,-9.87 -10.51,-11.56 -3.17,-0.73 -15.25,-1.8 -36.36,-3.06l-3.06 -3.08 0 -21.11 3.06 -2.86c21.31,1.29 52.57,1.91 93.82,1.91 42.6,0 75.04,-0.62 97.18,-1.91l3.08 2.86 0 21.41 -3.08 2.77c-21.2,1.26 -33.28,2.33 -36.36,3.06 -6.04,1.7 -9.53,5.52 -10.6,11.56 -2.65,14.83 -4.02,46.96 -4.02,96.24l0 185.69c0,27.14 0.53,53.42 1.59,78.86l42.17 0c60.52,0 97.51,-2.34 111.19,-7.1 2.33,-0.84 3.92,-2.02 4.98,-3.5 2.02,-2.87 4.03,-9.01 5.93,-18.54l7.44 -38.59 3.08 -3.39 18.97 0 3.38 3.08zm-401.18 -314.16c0,2.43 -0.73,7.52 -2.12,15.16l-3.7 19.93 -17.7 91.88 -21.2 0 -14.85 -91.88c-0.64,-3.6 -1.9,-10.17 -3.72,-19.93 -1.48,-7.84 -2.21,-12.92 -2.21,-15.16 0,-9.12 3.19,-16.86 9.64,-23.22 6.36,-6.25 14.21,-9.42 23.32,-9.42 9.12,0 16.73,3.17 23.11,9.42 6.24,6.36 9.42,14.1 9.42,23.22zm-120.2 416.66l-2.74 3.16c-46,-1.26 -73.67,-1.9 -83.22,-1.9 -38.04,0 -73.44,0.64 -106.2,1.9l-2.76 -3.16 0 -19.52 3.08 -3.49 27.04 -1.48c11.33,-0.64 17.07,-4.67 17.07,-12.08 0,-4.34 -2.86,-14.09 -8.7,-29.25l-25.12 -65.5c-28.61,-0.42 -57.77,-0.64 -87.65,-0.64 -16.12,0 -40.07,0.22 -71.98,0.64l-13.67 37.84c-10.39,28.83 -15.58,46.84 -15.58,54.06 0,7.83 4.87,12.5 14.63,13.98 5.4,0.84 15.91,1.7 31.69,2.44l3.08 3.19 0 19.83 -3.08 3.16c-38.26,-1.26 -62.96,-1.9 -73.86,-1.9 -8.48,0 -29.58,0.64 -63.07,1.9l-3.08 -2.85 0 -20.13 3.39 -3.19c21.3,-1.17 34.45,-5.4 39.21,-12.72 4.88,-7.2 23.21,-50.35 54.91,-129.41l80.97 -202.78c6.04,-15.78 15.16,-39.41 27.35,-71.12l44.1 0 164.58 387.19c6.37,14.74 12.19,23.01 17.39,24.8 6.79,2.55 16.64,3.83 29.47,3.83l2.74 3.39 0 19.83zm-196.82 -167.06l-66.46 -162.69 -63.59 162.69c16.95,0.64 39.01,0.96 66.13,0.96 26.28,0 47.58,-0.32 63.91,-0.96zm-236.9 -267.95c-2.55,15.27 -3.83,31.18 -4.03,47.48l-0.64 51.84 -3.08 3.17 -19.6 0 -3.39 -2.85c-1.06,-26.51 -2.23,-41.97 -3.4,-46.53 -2.55,-8.26 -9.12,-13.15 -19.92,-14.63 -4.13,-0.64 -23.63,-0.95 -58.39,-0.95l-41.56 0c-0.42,7.33 -0.64,36.05 -0.64,86.39l0 176.36c0,49.3 1.37,81.29 4.03,96.25 1.07,6.04 4.56,9.85 10.6,11.43 3.08,0.84 15.16,1.91 36.24,3.19l3.19 3.08 0 20.78 -3.19 3.16c-20.45,-1.26 -52.36,-1.9 -95.6,-1.9 -44.3,0 -76.21,0.64 -95.61,1.9l-2.85 -2.85 0 -21.09 3.18 -3.08c21.1,-1.28 33.18,-2.34 36.24,-3.19 6.04,-1.58 9.54,-5.39 10.6,-11.43 2.66,-14.96 4.03,-46.96 4.03,-96.25l0 -176.36c0,-51.2 -0.32,-79.92 -0.95,-86.39l-44.41 0c-37,0 -58.61,1.18 -64.87,3.5 -3.28,1.17 -5.62,2.76 -6.77,4.56 -1.93,3.38 -3.5,9.95 -4.67,19.93 -1.48,10.91 -2.44,22.25 -2.85,33.81l-3.08 3.17 -19.62 0 -3.39 -3.17 -0.64 -53.1c-0.2,-14.85 -1.37,-30.32 -3.7,-46.22l2.85 -3.17c12.19,2.1 56.71,3.17 133.45,3.17l125.79 0c70.81,0 115.33,-1.07 133.57,-3.17l3.08 3.17zm7351.42 -739.25l-3.51 3.09c-21.2,1.28 -33.34,2.34 -36.41,3.09 -6.08,1.7 -9.6,5.53 -10.65,11.61 -2.66,14.9 -4.05,47.15 -4.05,96.67l0 126.59c0,93.37 1.39,154.28 4.05,182.48l-4.05 2.87c-23.52,-3.93 -41.31,-6.81 -53.34,-8.39 -55.69,-62.61 -150.86,-176.86 -285.45,-342.53l0 204.01c0,49.49 1.39,81.66 4.05,96.67 1.06,6.06 4.58,9.9 10.65,11.5 3.08,0.86 15.32,1.92 36.51,3.2l3.08 3.08 0 21.2 -3.08 2.88c-23.96,-1.29 -46.21,-1.93 -66.75,-1.93 -23.97,0 -47.91,0.64 -72.09,1.93l-3.08 -2.88 0 -21.2 3.08 -3.08c21.2,-1.28 33.45,-2.33 36.52,-3.2 6.08,-1.59 9.59,-5.44 10.54,-11.5 2.76,-15.01 4.15,-47.18 4.15,-96.67l0 -165.03c0,-49.52 -1.39,-81.77 -4.15,-96.67 -0.95,-6.08 -4.47,-9.9 -10.54,-11.61 -3.08,-0.75 -15.32,-1.82 -36.52,-3.09l-3.08 -3.09 0 -21.18 3.08 -2.87c19.81,1.28 38.55,1.92 56.43,1.92 28.1,0 51.42,-0.64 69.95,-1.92 74.85,99.88 162.8,206.88 263.82,321.02l0 -182.49c0,-49.52 -1.37,-81.77 -4.05,-96.67 -1.06,-6.08 -4.58,-9.9 -10.53,-11.61 -3.2,-0.75 -15.33,-1.82 -36.51,-3.09l-3.21 -3.09 0 -21.18 3.21 -2.87c23.21,1.28 45.34,1.92 66.43,1.92 26.83,0 50.89,-0.64 72.29,-1.92l3.21 2.87 0 21.18zm-526.91 414.82l-2.79 3.21c-46.2,-1.29 -73.99,-1.93 -83.56,-1.93 -38.23,0 -73.8,0.64 -106.69,1.93l-2.76 -3.21 0 -19.59 3.07 -3.52 27.16 -1.48c11.41,-0.64 17.15,-4.69 17.15,-12.14 0,-4.37 -2.87,-14.17 -8.74,-29.4l-25.24 -65.79c-28.74,-0.42 -58.01,-0.64 -88.06,-0.64 -16.18,0 -40.24,0.22 -72.29,0.64l-13.73 38.01c-10.43,28.96 -15.65,47.07 -15.65,54.31 0,7.88 4.9,12.56 14.69,14.05 5.42,0.85 15.96,1.7 31.83,2.45l3.08 3.21 0 19.9 -3.08 3.21c-38.44,-1.29 -63.24,-1.93 -74.21,-1.93 -8.51,0 -29.7,0.64 -63.35,1.93l-3.08 -2.88 0 -20.23 3.41 -3.21c21.39,-1.17 34.6,-5.43 39.4,-12.78 4.88,-7.23 23.3,-50.58 55.14,-129.99l81.35 -203.69c6.06,-15.85 15.23,-39.59 27.48,-71.42l44.28 0 165.36 388.93c6.38,14.81 12.22,23.1 17.44,24.91 6.83,2.56 16.73,3.83 29.6,3.83l2.79 3.42 0 19.9zm-197.73 -167.79l-66.76 -163.44 -63.88 163.44c17.04,0.64 39.19,0.95 66.45,0.95 26.4,0 47.8,-0.31 64.2,-0.95zm-314.4 11.6l-3.09 3.41c-12.87,3.09 -20.43,7.45 -22.46,12.89 -2.13,5.52 -3.19,26.62 -3.19,63.24 0,17.67 0.84,35.13 2.54,52.38 -69.41,26.19 -132.43,39.28 -188.99,39.28 -74.52,0 -134.78,-20.86 -180.77,-62.49 -46.11,-41.74 -69.1,-98.6 -69.1,-170.56 0,-93.71 40.67,-160.56 121.89,-200.49 37.27,-18.33 84.54,-27.48 141.93,-27.48 33.34,0 66.98,3.63 101.16,10.88 27.99,6.06 50.14,12.87 66.43,20.65l2.77 5.52c-5.42,18.33 -9.9,50.16 -13.43,95.5l-3.4 3.09 -18.72 0 -3.09 -3.09c0,-3.94 -0.43,-12.14 -1.29,-24.47 -0.83,-12.36 -1.9,-21.1 -3.08,-26.09 -9.16,-12.46 -24.82,-23.01 -46.86,-31.72 -23.63,-9.17 -49.27,-13.75 -76.75,-13.75 -73.57,0 -124.36,29.71 -152.47,89.11 -12.89,27.48 -19.37,59.31 -19.37,95.5 0,57.83 15.44,105.73 46.2,143.85 32.06,39.51 73.69,59.2 125.11,59.2 27.15,0 53.54,-5.86 78.89,-17.46 1.37,-14.59 2.12,-34.49 2.12,-59.84 0,-20.65 -0.75,-33.09 -2.12,-37.48 -1.28,-3.29 -5.22,-5.74 -11.93,-7.13 -5.53,-1.26 -23.1,-2.87 -52.7,-4.69l-3.41 -3.19 0 -19.59 3.41 -3.09c30.24,0.75 61.76,1.07 94.86,0.86 19.17,-0.22 47.71,-0.53 85.82,-0.86l3.09 3.09 0 15.01zm-525.33 53.24c-4.6,30.44 -6.83,64.73 -6.83,102.95l-3.18 3.21 -226.69 -1.93c-37.89,0 -64.61,0.64 -80.16,1.93l-3.2 -3.21 0 -8.74 1.58 -3.72c15.34,-9.79 23.75,-15.87 24.91,-18.41 1.93,-3.73 3.09,-17.58 3.52,-41.43l0.86 -69.94 0 -158.11c0,-49.52 -1.29,-81.77 -4.05,-96.67 -1.07,-6.08 -4.58,-9.9 -10.54,-11.61 -3.19,-0.75 -15.32,-1.82 -36.52,-3.09l-3.09 -3.09 0 -21.18 3.09 -2.87c21.4,1.28 52.81,1.92 94.23,1.92 42.81,0 75.38,-0.64 97.64,-1.92l3.09 2.87 0 21.51 -3.09 2.76c-21.29,1.28 -33.43,2.34 -36.52,3.09 -6.08,1.7 -9.59,5.53 -10.65,11.61 -2.66,14.9 -4.05,47.15 -4.05,96.67l0 186.53c0,27.26 0.54,53.65 1.61,79.22l42.36 0c60.8,0 97.96,-2.34 111.7,-7.14 2.33,-0.84 3.94,-2.01 5,-3.51 2.01,-2.88 4.05,-9.04 5.97,-18.62l7.45 -38.77 3.08 -3.4 19.06 0 3.42 3.09zm-388.63 102.95l-2.87 3.21c-20.76,-1.29 -52.9,-1.93 -96.35,-1.93 -43.23,0 -75.27,0.64 -96.05,1.93l-2.87 -3.21 0 -20.87 3.21 -3.08c21.18,-1.28 33.32,-2.33 36.41,-3.2 6.08,-1.59 9.59,-5.44 10.65,-11.5 2.65,-15.01 4.04,-47.18 4.04,-96.67l0 -165.03c0,-49.52 -1.39,-81.77 -4.04,-96.67 -1.07,-6.08 -4.58,-9.9 -10.65,-11.61 -3.09,-0.75 -15.23,-1.82 -36.41,-3.09l-3.21 -3.09 0 -21.18 3.21 -2.87c19.92,1.28 51.95,1.92 96.03,1.92 43.86,0 75.81,-0.64 95.72,-1.92l3.19 2.87 0 21.18 -3.19 3.09c-21.2,1.28 -33.34,2.34 -36.4,3.09 -6.08,1.7 -9.6,5.53 -10.65,11.61 -2.66,14.9 -4.05,47.15 -4.05,96.67l0 165.03c0,49.49 1.39,81.66 4.05,96.67 1.06,6.06 4.58,9.9 10.65,11.5 3.07,0.86 15.2,1.92 36.4,3.2l3.19 3.08 0 20.87zm-232.43 0l-3.07 3.21c-1.5,0 -5.44,-0.11 -11.83,-0.33 -28.54,-1.07 -46.32,-1.59 -53.34,-1.59 -10.65,0 -27.46,0.64 -50.58,1.93 -0.84,-5.02 -4.78,-13.31 -11.81,-25.02l-77.41 -129.15 -34.61 -52.7c-4.35,-6.38 -10.54,-12.78 -18.41,-19.06l3.4 -10.54c4.8,0.22 8.31,0.32 10.65,0.32 20.34,0 36.41,-3.3 48.02,-9.68 10.64,-5.86 20.45,-15.96 29.38,-30.56 8.84,-14.59 13.3,-31.95 13.3,-52.06 0,-35.15 -13.09,-58.89 -39.28,-71.12 -12.46,-5.86 -30.66,-8.74 -54.52,-8.74 -10.43,0 -20.45,0.73 -30.02,2.44 -2.03,20.34 -3.09,55.15 -3.09,104.23l0 163.13c0,49.49 1.39,81.66 4.05,96.67 1.06,6.06 4.58,9.9 10.65,11.5 3.09,0.86 15.22,1.92 36.51,3.2l3.09 3.08 0 20.87 -2.78 3.21c-20.87,-1.29 -52.9,-1.93 -96.14,-1.93 -44.7,0 -76.76,0.64 -96.03,1.93l-3.09 -2.88 0 -21.2 3.09 -3.08c21.2,-1.28 33.34,-2.33 36.52,-3.2 5.97,-1.59 9.48,-5.44 10.54,-11.5 2.76,-15.01 4.04,-47.18 4.04,-96.67l0 -165.03c0,-49.52 -1.28,-81.77 -4.04,-96.67 -1.07,-6.08 -4.58,-9.9 -10.54,-11.61 -3.19,-0.75 -15.32,-1.82 -36.52,-3.09l-3.09 -3.09 0 -21.18 3.09 -2.87c20.34,1.28 52.39,1.92 96.03,1.92 25.35,0 46,-0.32 61.76,-0.96 31.4,-1.27 54.94,-1.91 70.48,-1.91 35.99,0 62.39,3.3 79.21,9.68 22.68,8.74 37.91,23.52 45.58,44.29 3.72,10.23 5.64,22.26 5.64,36.21 0,56.53 -31.83,96.67 -95.41,120.42 10.34,17.46 21.41,35.12 33.02,53.01l48.02 73.9c28.31,43.64 47.15,68.55 56.41,74.63 4.8,3.09 11.5,4.58 20.03,4.58l3.07 3.21 0 19.9zm-472.19 0l-2.87 3.21c-20.76,-1.29 -52.9,-1.93 -96.35,-1.93 -43.24,0 -75.27,0.64 -96.05,1.93l-2.87 -3.21 0 -20.87 3.21 -3.08c21.18,-1.28 33.32,-2.33 36.4,-3.2 6.08,-1.59 9.6,-5.44 10.65,-11.5 2.66,-15.01 4.05,-47.18 4.05,-96.67l0 -165.03c0,-49.52 -1.39,-81.77 -4.05,-96.67 -1.06,-6.08 -4.58,-9.9 -10.65,-11.61 -3.09,-0.75 -15.22,-1.82 -36.4,-3.09l-3.21 -3.09 0 -21.18 3.21 -2.87c19.91,1.28 51.95,1.92 96.03,1.92 43.86,0 75.8,-0.64 95.72,-1.92l3.19 2.87 0 21.18 -3.19 3.09c-21.2,1.28 -33.34,2.34 -36.41,3.09 -6.08,1.7 -9.59,5.53 -10.65,11.61 -2.65,14.9 -4.04,47.15 -4.04,96.67l0 165.03c0,49.49 1.39,81.66 4.04,96.67 1.07,6.06 4.58,9.9 10.65,11.5 3.08,0.86 15.21,1.92 36.41,3.2l3.19 3.08 0 20.87zm-236.15 -436.95c-2.55,15.32 -3.83,31.31 -4.05,47.69l-0.64 52.07 -3.08 3.2 -19.7 0 -3.4 -2.87c-1.07,-26.62 -2.23,-42.16 -3.41,-46.73 -2.56,-8.31 -9.17,-13.22 -20.02,-14.7 -4.16,-0.64 -23.75,-0.95 -58.68,-0.95l-41.73 0c-0.43,7.34 -0.63,36.19 -0.63,86.77l0 177.17c0,49.49 1.38,81.66 4.05,96.67 1.07,6.06 4.58,9.9 10.64,11.5 3.09,0.86 15.23,1.92 36.41,3.2l3.21 3.08 0 20.87 -3.21 3.21c-20.54,-1.29 -52.6,-1.93 -96.03,-1.93 -44.5,0 -76.56,0.64 -96.03,1.93l-2.87 -2.88 0 -21.2 3.18 -3.08c21.2,-1.28 33.34,-2.33 36.43,-3.2 6.06,-1.59 9.58,-5.44 10.64,-11.5 2.68,-15.01 4.05,-47.18 4.05,-96.67l0 -177.17c0,-51.42 -0.32,-80.29 -0.95,-86.77l-44.61 0c-37.16,0 -58.87,1.17 -65.17,3.51 -3.29,1.15 -5.63,2.76 -6.81,4.58 -1.92,3.4 -3.51,10 -4.69,20.01 -1.48,10.96 -2.45,22.35 -2.87,33.96l-3.08 3.2 -19.7 0 -3.42 -3.2 -0.62 -53.33c-0.22,-14.92 -1.39,-30.46 -3.73,-46.43l2.87 -3.2c12.25,2.12 56.97,3.2 134.06,3.2l126.37 0c71.13,0 115.83,-1.07 134.16,-3.2l3.08 3.2zm-433.21 436.95l-3.21 3.21c-20.54,-1.29 -52.59,-1.93 -96.03,-1.93 -44.5,0 -76.56,0.64 -96.03,1.93l-3.21 -2.88 0 -21.2 3.41 -3.08c21.31,-1.28 33.45,-2.33 36.51,-3.2 6.08,-1.59 9.6,-5.44 10.65,-11.5 2.66,-15.01 4.05,-47.18 4.05,-96.67l0 -75.17c-10.65,-1.07 -44.3,-1.61 -101.04,-1.61 -52.38,0 -86.97,0.54 -103.59,1.61l0 75.17c0,49.49 1.39,81.66 4.04,96.67 1.07,6.06 4.58,9.9 10.65,11.5 3.09,0.86 15.23,1.92 36.52,3.2l3.09 3.08 0 20.87 -2.79 3.21c-20.86,-1.29 -52.9,-1.93 -96.13,-1.93 -44.7,0 -76.76,0.64 -96.03,1.93l-3.09 -2.88 0 -21.2 3.09 -3.08c21.2,-1.28 33.33,-2.33 36.51,-3.2 5.97,-1.59 9.49,-5.44 10.54,-11.5 2.77,-15.01 4.05,-47.18 4.05,-96.67l0 -165.03c0,-49.52 -1.28,-81.77 -4.05,-96.67 -1.06,-6.08 -4.58,-9.9 -10.54,-11.61 -3.19,-0.75 -15.32,-1.82 -36.51,-3.09l-3.09 -3.09 0 -21.18 3.09 -2.87c19.91,1.28 51.95,1.92 96.03,1.92 45.14,0 77.2,-0.64 96.13,-1.92l2.79 2.87 0 21.51 -3.09 2.76c-21.29,1.28 -33.43,2.34 -36.52,3.09 -6.08,1.7 -9.59,5.53 -10.65,11.61 -2.65,14.9 -4.04,47.15 -4.04,96.67l0 51.42c22.03,1.07 52.38,1.59 91.14,1.59 60.69,0 98.49,-0.53 113.5,-1.59l0 -51.42c0,-49.52 -1.39,-81.77 -4.05,-96.67 -1.06,-6.08 -4.58,-9.9 -10.65,-11.61 -3.07,-0.75 -15.2,-1.82 -36.51,-3.09l-3.41 -3.09 0 -21.18 3.21 -2.87c20.11,1.28 52.17,1.92 96.03,1.92 45.36,0 77.4,-0.64 96.03,-1.92l3.21 2.87 0 21.51 -2.87 2.76c-21.62,1.28 -33.87,2.34 -36.75,3.09 -6.08,1.7 -9.57,5.53 -10.65,11.61 -2.76,14.9 -4.04,47.15 -4.04,96.67l0 165.03c0,49.49 1.28,81.66 4.04,96.67 1.08,6.06 4.58,9.9 10.65,11.5 3.09,0.86 15.23,1.92 36.41,3.2l3.21 3.08 0 20.87zm-545.55 -142.88c0,34.39 -9.79,64.61 -29.38,90.82 -17.04,23.1 -39.4,40.25 -67.09,51.42 -25.34,10.43 -55.58,15.65 -90.7,15.65 -43.67,0 -86.57,-10 -128.51,-29.92l-3.74 -6.91c5.75,-23.86 8.74,-57.93 8.74,-102.01l3.09 -3.09 19.91 0 2.88 3.09 0 7.25c0,11.59 1.26,26.92 3.72,46.09 7.45,13.3 20.86,24.8 40.26,34.29 20.11,9.99 41.18,15.01 63.02,15.01 41.1,0 69.64,-14.37 85.38,-43.02 8.21,-14.8 12.25,-30.03 12.25,-45.9 0,-26.61 -11.16,-45.67 -33.43,-57.05 -10.96,-5.64 -28.74,-10.33 -53.34,-14.06 -55.47,-8.51 -91.99,-19.27 -109.45,-32.14 -26.41,-19.49 -39.62,-49.73 -39.62,-90.72 0,-42.69 14.39,-76.65 43.02,-102 30.35,-26.62 72.62,-39.93 126.7,-39.93 48.65,0 87.95,7.78 117.87,23.43l2.12 7.46c-4.89,24.69 -7.99,54.52 -8.93,89.22l-3.52 3.09 -19.59 0 -3.2 -3.09c-0.54,-25.02 -1.59,-41.21 -3.09,-48.66 -6.39,-9.79 -17.67,-18.1 -33.65,-25.02 -17.02,-7.03 -34.8,-10.54 -53.32,-10.54 -27.91,0 -49.94,7.36 -66.12,22.15 -15.23,13.94 -22.79,31.95 -22.79,53.98 0,23.86 8.63,41.41 25.87,52.71 11.18,7.23 37.69,14.15 79.54,20.86 4.37,0.64 16.51,2.66 36.52,6.28 12.24,2.03 23.51,4.99 33.96,8.95 20.98,7.98 36.85,20.01 47.39,36.19 11.5,17.69 17.24,39.73 17.24,66.12zm-372.21 142.88l-2.78 3.21c-46.2,-1.29 -73.99,-1.93 -83.57,-1.93 -38.22,0 -73.79,0.64 -106.69,1.93l-2.76 -3.21 0 -19.59 3.08 -3.52 27.15 -1.48c11.41,-0.64 17.16,-4.69 17.16,-12.14 0,-4.37 -2.88,-14.17 -8.74,-29.4l-25.25 -65.79c-28.74,-0.42 -58.01,-0.64 -88.05,-0.64 -16.19,0 -40.24,0.22 -72.3,0.64l-13.72 38.01c-10.44,28.96 -15.66,47.07 -15.66,54.31 0,7.88 4.91,12.56 14.7,14.05 5.42,0.85 15.96,1.7 31.83,2.45l3.08 3.21 0 19.9 -3.08 3.21c-38.44,-1.29 -63.25,-1.93 -74.21,-1.93 -8.51,0 -29.71,0.64 -63.35,1.93l-3.08 -2.88 0 -20.23 3.4 -3.21c21.4,-1.17 34.6,-5.43 39.4,-12.78 4.89,-7.23 23.3,-50.58 55.14,-129.99l81.36 -203.69c6.06,-15.85 15.23,-39.59 27.47,-71.42l44.29 0 165.35 388.93c6.39,14.81 12.23,23.1 17.45,24.91 6.83,2.56 16.73,3.83 29.6,3.83l2.78 3.42 0 19.9zm-197.72 -167.79l-66.76 -163.44 -63.89 163.44c17.05,0.64 39.2,0.95 66.46,0.95 26.4,0 47.79,-0.31 64.2,-0.95zm-307.6 64.84c-4.6,30.44 -6.83,64.73 -6.83,102.95l-3.18 3.21 -226.69 -1.93c-37.89,0 -64.61,0.64 -80.16,1.93l-3.2 -3.21 0 -8.74 1.58 -3.72c15.34,-9.79 23.75,-15.87 24.92,-18.41 1.92,-3.73 3.09,-17.58 3.51,-41.43l0.86 -69.94 0 -158.11c0,-49.52 -1.29,-81.77 -4.05,-96.67 -1.07,-6.08 -4.58,-9.9 -10.54,-11.61 -3.19,-0.75 -15.32,-1.82 -36.52,-3.09l-3.09 -3.09 0 -21.18 3.09 -2.87c21.4,1.28 52.81,1.92 94.23,1.92 42.81,0 75.38,-0.64 97.64,-1.92l3.09 2.87 0 21.51 -3.09 2.76c-21.29,1.28 -33.43,2.34 -36.52,3.09 -6.08,1.7 -9.59,5.53 -10.65,11.61 -2.65,14.9 -4.05,47.15 -4.05,96.67l0 186.53c0,27.26 0.54,53.65 1.61,79.22l42.36 0c60.8,0 97.96,-2.34 111.71,-7.14 2.32,-0.84 3.93,-2.01 4.99,-3.51 2.01,-2.88 4.05,-9.04 5.97,-18.62l7.45 -38.77 3.08 -3.4 19.06 0 3.42 3.09zm-396.7 -39.92c0,34.39 -9.79,64.61 -29.38,90.82 -17.05,23.1 -39.4,40.25 -67.1,51.42 -25.33,10.43 -55.57,15.65 -90.7,15.65 -43.66,0 -86.56,-10 -128.51,-29.92l-3.73 -6.91c5.75,-23.86 8.74,-57.93 8.74,-102.01l3.09 -3.09 19.91 0 2.87 3.09 0 7.25c0,11.59 1.27,26.92 3.72,46.09 7.45,13.3 20.86,24.8 40.25,34.29 20.12,9.99 41.19,15.01 63.03,15.01 41.1,0 69.64,-14.37 85.38,-43.02 8.2,-14.8 12.25,-30.03 12.25,-45.9 0,-26.61 -11.16,-45.67 -33.43,-57.05 -10.96,-5.64 -28.74,-10.33 -53.34,-14.06 -55.47,-8.51 -91.99,-19.27 -109.46,-32.14 -26.4,-19.49 -39.61,-49.73 -39.61,-90.72 0,-42.69 14.39,-76.65 43.02,-102 30.35,-26.62 72.62,-39.93 126.69,-39.93 48.66,0 87.96,7.78 117.87,23.43l2.13 7.46c-4.89,24.69 -7.99,54.52 -8.94,89.22l-3.51 3.09 -19.59 0 -3.21 -3.09c-0.53,-25.02 -1.59,-41.21 -3.09,-48.66 -6.38,-9.79 -17.66,-18.1 -33.64,-25.02 -17.03,-7.03 -34.8,-10.54 -53.33,-10.54 -27.9,0 -49.94,7.36 -66.12,22.15 -15.23,13.94 -22.79,31.95 -22.79,53.98 0,23.86 8.63,41.41 25.87,52.71 11.18,7.23 37.69,14.15 79.54,20.86 4.37,0.64 16.51,2.66 36.51,6.28 12.25,2.03 23.52,4.99 33.96,8.95 20.99,7.98 36.86,20.01 47.4,36.19 11.49,17.69 17.24,39.73 17.24,66.12zm-386.17 -86.35c0,76.75 -22.37,136.93 -67.07,180.57 -43.43,42.49 -102.86,63.67 -178.13,63.67 -71.12,0 -126.92,-20.01 -167.48,-60.05 -40.56,-40.03 -60.9,-95.72 -60.9,-167.06 0,-99.97 38.22,-169.27 114.57,-207.71 34.71,-17.46 77.4,-26.2 128.18,-26.2 72.51,0 129.05,18.97 169.4,57.08 40.88,38.64 61.43,91.88 61.43,159.7zm-96.13 16.18c0,-60.26 -12.04,-108.17 -36.32,-143.63 -24.27,-35.46 -59.71,-53.12 -106.47,-53.12 -61.85,0 -102.73,27.67 -122.96,83.26 -10.34,28.43 -15.56,60.37 -15.56,95.72 0,64.31 11.82,114.98 35.56,152.25 24.5,38.44 61.22,57.69 110.1,57.69 59.31,0 99.13,-29.16 119.46,-87.61 10.86,-30.99 16.19,-65.81 16.19,-104.57zm-440.04 70.17c0,34.39 -9.79,64.61 -29.38,90.82 -17.04,23.1 -39.4,40.25 -67.09,51.42 -25.34,10.43 -55.58,15.65 -90.7,15.65 -43.66,0 -86.57,-10 -128.51,-29.92l-3.73 -6.91c5.74,-23.86 8.73,-57.93 8.73,-102.01l3.09 -3.09 19.92 0 2.87 3.09 0 7.25c0,11.59 1.26,26.92 3.72,46.09 7.45,13.3 20.86,24.8 40.26,34.29 20.11,9.99 41.18,15.01 63.02,15.01 41.1,0 69.64,-14.37 85.39,-43.02 8.2,-14.8 12.24,-30.03 12.24,-45.9 0,-26.61 -11.16,-45.67 -33.42,-57.05 -10.97,-5.64 -28.74,-10.33 -53.35,-14.06 -55.47,-8.51 -91.98,-19.27 -109.45,-32.14 -26.4,-19.49 -39.62,-49.73 -39.62,-90.72 0,-42.69 14.39,-76.65 43.02,-102 30.35,-26.62 72.62,-39.93 126.7,-39.93 48.65,0 87.96,7.78 117.87,23.43l2.12 7.46c-4.88,24.69 -7.98,54.52 -8.93,89.22l-3.51 3.09 -19.59 0 -3.21 -3.09c-0.54,-25.02 -1.59,-41.21 -3.09,-48.66 -6.39,-9.79 -17.67,-18.1 -33.65,-25.02 -17.02,-7.03 -34.8,-10.54 -53.32,-10.54 -27.9,0 -49.94,7.36 -66.12,22.15 -15.23,13.94 -22.79,31.95 -22.79,53.98 0,23.86 8.63,41.41 25.87,52.71 11.18,7.23 37.69,14.15 79.54,20.86 4.37,0.64 16.51,2.66 36.52,6.28 12.25,2.03 23.52,4.99 33.96,8.95 20.98,7.98 36.85,20.01 47.39,36.19 11.5,17.69 17.24,39.73 17.24,66.12zm-382.13 142.88l-2.88 3.21c-20.75,-1.29 -52.9,-1.93 -96.34,-1.93 -43.24,0 -75.28,0.64 -96.05,1.93l-2.87 -3.21 0 -20.87 3.2 -3.08c21.18,-1.28 33.32,-2.33 36.41,-3.2 6.08,-1.59 9.6,-5.44 10.65,-11.5 2.66,-15.01 4.05,-47.18 4.05,-96.67l0 -165.03c0,-49.52 -1.39,-81.77 -4.05,-96.67 -1.06,-6.08 -4.58,-9.9 -10.65,-11.61 -3.09,-0.75 -15.23,-1.82 -36.41,-3.09l-3.2 -3.09 0 -21.18 3.2 -2.87c19.92,1.28 51.96,1.92 96.03,1.92 43.86,0 75.81,-0.64 95.73,-1.92l3.19 2.87 0 21.18 -3.19 3.09c-21.2,1.28 -33.34,2.34 -36.41,3.09 -6.08,1.7 -9.59,5.53 -10.65,11.61 -2.65,14.9 -4.05,47.15 -4.05,96.67l0 165.03c0,49.49 1.4,81.66 4.05,96.67 1.07,6.06 4.58,9.9 10.65,11.5 3.08,0.86 15.21,1.92 36.41,3.2l3.19 3.08 0 20.87zm-236.15 -436.95c-2.55,15.32 -3.83,31.31 -4.05,47.69l-0.64 52.07 -3.08 3.2 -19.7 0 -3.4 -2.87c-1.07,-26.62 -2.23,-42.16 -3.41,-46.73 -2.56,-8.31 -9.17,-13.22 -20.02,-14.7 -4.16,-0.64 -23.75,-0.95 -58.68,-0.95l-41.74 0c-0.42,7.34 -0.62,36.19 -0.62,86.77l0 177.17c0,49.49 1.37,81.66 4.05,96.67 1.06,6.06 4.58,9.9 10.64,11.5 3.09,0.86 15.23,1.92 36.41,3.2l3.2 3.08 0 20.87 -3.2 3.21c-20.54,-1.29 -52.6,-1.93 -96.03,-1.93 -44.51,0 -76.56,0.64 -96.03,1.93l-2.88 -2.88 0 -21.2 3.19 -3.08c21.2,-1.28 33.34,-2.33 36.43,-3.2 6.06,-1.59 9.57,-5.44 10.64,-11.5 2.67,-15.01 4.05,-47.18 4.05,-96.67l0 -177.17c0,-51.42 -0.32,-80.29 -0.95,-86.77l-44.61 0c-37.16,0 -58.87,1.17 -65.17,3.51 -3.3,1.15 -5.64,2.76 -6.81,4.58 -1.92,3.4 -3.51,10 -4.69,20.01 -1.48,10.96 -2.46,22.35 -2.87,33.96l-3.08 3.2 -19.7 0 -3.42 -3.2 -0.63 -53.33c-0.21,-14.92 -1.39,-30.46 -3.73,-46.43l2.88 -3.2c12.24,2.12 56.96,3.2 134.05,3.2l126.37 0c71.14,0 115.84,-1.07 134.17,-3.2l3.08 3.2zm-424.8 436l-3.19 3.19 -63.58 -0.95c-10.43,-0.22 -28.63,0.11 -54.61,0.95 -6.28,-7.76 -16.4,-24.7 -30.57,-50.89l-64.93 -120.08 -24.6 35.24c-31.2,44.72 -60.05,89.95 -86.67,135.74 -9.59,-0.64 -19.16,-0.95 -28.76,-0.95 -19.36,0 -33.42,0.32 -42.36,0.95l-3.2 -3.19 0 -19.92 3.2 -3.4c17.03,-1.28 27.24,-3.09 30.87,-5.33 6.18,-3.94 20.34,-20.86 42.38,-50.89l40.88 -55.15c1.6,-2.12 18.32,-24.58 49.93,-67.38l-23.74 -41.84 -38.12 -65.79c-26.92,-46.54 -47.59,-74.1 -61.74,-82.64 -4.69,-2.87 -9.7,-4.35 -14.92,-4.35 -4.14,0 -10.64,0.31 -19.37,0.95l-4.04 -3.18 -2.46 -16.52 2.76 -4.68c29.29,-5.96 67.08,-14.37 113.19,-24.92 13.19,8.53 26.72,23.86 40.56,46.12 6.7,10.85 17.13,29.38 31.2,55.57l35.24 65.48 40.56 -59.31c33.54,-48.97 55.27,-82.41 65.26,-100.08 8.53,0.84 16.94,1.28 25.25,1.28 13.94,0 28.1,-0.44 42.38,-1.28l3.19 3.09 0 20.65 -3.19 3.09c-14.28,0.19 -23.86,1.79 -28.55,4.67 -4.68,2.87 -13.72,12.78 -27.25,29.59 -13.54,16.83 -31.31,40.26 -53.35,70.17 -12.25,16.71 -27.26,37.38 -44.93,62.08 10.44,19.16 25.23,46.09 44.61,80.8l39.93 68.68c22.04,37.8 35.87,59.2 41.63,64.09 5.74,4.91 15.01,7.36 27.9,7.36l3.19 3.08 0 19.92z"/>
  </g>
 </g>
</svg>